<svg width="203" height="188" viewBox="0 0 203 188" fill="none" xmlns="http://www.w3.org/2000/svg">
<g clip-path="url(#clip0)">
<path d="M184.943 150.125L168.464 125.675C168.464 125.675 193.42 134.378 190.587 150.125H184.943Z" fill="#E8F6EF"/>
<path d="M14.1263 150.287L13.5008 150.275C13.7427 143.327 14.4849 136.406 15.7214 129.564C18.4266 114.917 22.9248 105.298 29.091 100.973L29.4503 101.485C15.0458 111.587 14.1337 149.901 14.1263 150.287Z" fill="#E8F6EF"/>
<path d="M21.946 150.137L21.3204 150.125C21.3339 149.433 21.7249 133.124 28.1526 128.617L28.5118 129.128C22.3434 133.454 21.9491 149.971 21.946 150.137Z" fill="#E8F6EF"/>
<path d="M33.0091 101.541C34.7366 101.541 36.137 100.142 36.137 98.4169C36.137 96.6914 34.7366 95.2926 33.0091 95.2926C31.2816 95.2926 29.8812 96.6914 29.8812 98.4169C29.8812 100.142 31.2816 101.541 33.0091 101.541Z" fill="#FFB319"/>
<path d="M31.4601 128.41C33.1876 128.41 34.588 127.012 34.588 125.286C34.588 123.561 33.1876 122.162 31.4601 122.162C29.7326 122.162 28.3322 123.561 28.3322 125.286C28.3322 127.012 29.7326 128.41 31.4601 128.41Z" fill="#FFB319"/>
<path d="M20.4881 103.414C21.0759 107.165 19.5438 110.519 19.5438 110.519C19.5438 110.519 17.0586 107.793 16.4708 104.042C15.8829 100.292 17.415 96.9375 17.415 96.9375C17.415 96.9375 19.9002 99.6637 20.4881 103.414Z" fill="#E8F6EF"/>
<path d="M30.7122 112.523C27.1173 113.754 23.5435 112.832 23.5435 112.832C23.5435 112.832 25.798 109.913 29.3929 108.681C32.9877 107.449 36.5616 108.372 36.5616 108.372C36.5616 108.372 34.307 111.291 30.7122 112.523Z" fill="#E8F6EF"/>
<path d="M30.8277 136.318C29.2007 136.829 27.468 136.903 25.803 136.535C26.8602 135.19 28.2841 134.18 29.903 133.625C31.522 133.07 33.2669 132.995 34.9277 133.408C33.8397 134.72 32.4259 135.724 30.8277 136.318V136.318Z" fill="#E8F6EF"/>
<path d="M202.687 150.749H0.312789C0.229832 150.749 0.150278 150.717 0.0916183 150.658C0.032959 150.599 0 150.52 0 150.437C0 150.354 0.032959 150.275 0.0916183 150.216C0.150278 150.158 0.229832 150.125 0.312789 150.125H202.687C202.77 150.125 202.85 150.158 202.908 150.216C202.967 150.275 203 150.354 203 150.437C203 150.52 202.967 150.599 202.908 150.658C202.85 150.717 202.77 150.749 202.687 150.749Z" fill="#CBCBCB"/>
<path d="M128.178 165.153L125.619 171.805L98.7121 165.112L102.489 155.293L128.178 165.153Z" fill="#FFB7B7"/>
<path d="M135.287 165.933L127.036 187.385L126.764 187.28C124.548 186.429 122.76 184.734 121.795 182.567C120.829 180.399 120.765 177.938 121.617 175.723L121.617 175.723L126.657 162.621L135.287 165.933Z" fill="#2F2E41"/>
<path d="M87.2914 81.8549L75.5655 82.9516L74.9838 117.801C75.1393 119.509 75.9581 121.088 77.265 122.2C78.5718 123.313 80.2628 123.87 81.9756 123.752L89.4101 123.24L87.2914 81.8549Z" fill="#E8F6EF"/>
<path d="M128.63 80.1397L120.607 80.0365L120.132 121.445C121.905 121.504 123.671 121.198 125.32 120.545C126.969 119.892 128.466 118.907 129.717 117.65C130.968 116.394 131.947 114.894 132.591 113.243C133.236 111.592 133.534 109.827 133.465 108.056L128.63 80.1397Z" fill="#E8F6EF"/>
<path d="M82.0761 136.156C81.886 137.357 81.6102 138.543 81.2507 139.704C80.8459 140.842 80.2208 141.893 79.8506 143.042C78.6707 146.704 80.3064 150.787 82.919 153.614C85.1847 156.056 88.1092 157.79 91.3397 158.609C93.6966 159.201 96.1473 159.286 98.5762 159.368C105.302 159.596 112.201 159.8 118.574 157.641C120.587 156.942 122.532 156.059 124.384 155.004C124.968 154.726 125.484 154.321 125.891 153.819C126.377 153.127 126.44 152.231 126.435 151.386C126.421 148.538 125.843 145.705 125.98 142.86C126.056 141.284 126.352 139.71 126.206 138.139C126.005 136.355 125.257 134.677 124.064 133.334C122.871 131.991 121.292 131.049 119.543 130.637C117.735 130.249 115.86 130.46 114.019 130.637C109.241 131.096 104.443 131.31 99.6433 131.279C94.7392 131.248 89.8654 130.5 84.9858 130.422C83.5427 130.399 83.5719 130.843 83.1125 132.238C82.6893 133.522 82.3432 134.83 82.0761 136.156V136.156Z" fill="#2F2E41"/>
<path d="M62.8994 133.841C61.5806 133.51 60.2219 133.366 58.8629 133.412C57.4351 133.491 56.0405 133.873 54.7717 134.532C53.5029 135.19 52.3892 136.112 51.5044 137.234C50.6196 138.356 49.9842 139.653 49.6403 141.04C49.2964 142.426 49.2519 143.87 49.5099 145.275C49.8392 146.797 50.3774 148.266 51.1093 149.641C52.1798 151.811 53.4637 153.975 55.4454 155.366C56.6047 156.179 57.9464 156.687 59.2721 157.186L69.7095 161.113C71.2449 161.691 72.7806 162.269 74.3313 162.804C82.1216 165.494 90.2435 167.107 98.4714 167.598C100.978 167.747 103.522 167.789 105.967 167.219C106.547 167.083 107.166 166.882 107.502 166.39C107.701 166.044 107.818 165.657 107.845 165.259L108.487 160.768C108.577 160.135 108.664 159.47 108.432 158.874C108.138 158.12 107.401 157.645 106.697 157.241C99.8357 153.305 91.8236 151.133 86.048 145.73C84.6883 144.458 83.5504 142.442 81.8984 141.578C80.0251 140.598 77.8188 140.039 75.8824 139.136C71.6493 137.162 67.4873 134.894 62.8994 133.841Z" fill="#2F2E41"/>
<path opacity="0.1" d="M73.3195 139.896C77.0086 141.05 92.5843 149.05 95.254 151.843C94.8962 151.972 82.7547 145.175 82.3903 145.066C79.0787 144.073 75.7486 143.074 72.6036 141.621C71.971 141.329 68.4934 139.955 68.6509 139.158C68.8286 138.258 72.6645 139.691 73.3195 139.896Z" fill="black"/>
<path d="M95.5841 70.1417L85.6512 77.675C85.6512 77.675 75.1701 78.0025 75.5243 84.6949C75.8784 91.3873 80.0732 123.073 80.0732 123.073L80.9833 133.976L98.2471 138.889C107.575 141.544 117.43 141.755 126.863 139.502V139.502L124.811 128.564C124.811 128.564 133.119 78.8899 128.114 76.7029C123.11 74.5159 119.982 75.1407 119.982 75.1407L113.709 69.673L95.5841 70.1417Z" fill="#E8F6EF"/>
<path d="M124.986 57.9736C124.986 67.7531 115.933 66.2739 104.766 66.2739C93.5983 66.2739 84.5454 67.7531 84.5454 57.9736C84.5454 48.1941 88.9675 30.8593 104.766 30.8593C121.108 30.8593 124.986 48.1941 124.986 57.9736Z" fill="#2F2E41"/>
<path d="M115.277 61.2878C120.591 55.9802 120.591 47.3749 115.277 42.0673C109.963 36.7597 101.348 36.7597 96.0345 42.0673C90.7208 47.3749 90.7208 55.9802 96.0345 61.2878C101.348 66.5954 109.963 66.5954 115.277 61.2878Z" fill="#FFB7B7"/>
<path d="M88.9772 51.3333H94.3588L96.733 44.6931L97.2077 51.3333H99.7799L101.165 47.4598L101.442 51.3333H120.554C120.554 47.5176 119.037 43.8582 116.336 41.16C113.634 38.4619 109.971 36.9461 106.151 36.9461H103.381C99.5607 36.9461 95.8971 38.4619 93.1959 41.16C90.4947 43.8582 88.9772 47.5176 88.9772 51.3333V51.3333Z" fill="#2F2E41"/>
<path d="M118.418 71.7039H91.2051V104.509H118.418V71.7039Z" fill="#FFB319"/>
<path d="M92.7048 164.84L95.264 171.493L122.171 164.8L118.394 154.981L92.7048 164.84Z" fill="#FFB7B7"/>
<path d="M94.2267 162.309L99.2663 175.41L99.2665 175.411C100.118 177.625 100.054 180.087 99.0887 182.254C98.1234 184.422 96.3357 186.117 94.1188 186.968L93.8472 187.072L85.5961 165.621L94.2267 162.309Z" fill="#2F2E41"/>
<path d="M146.49 131.294C148.652 130.753 150.892 130.6 153.108 130.843C154.877 131.037 156.7 131.529 157.991 132.752C159.563 134.241 160.069 136.543 160.111 138.707C160.18 143.016 158.749 147.215 156.063 150.588C155.407 151.441 154.627 152.191 153.748 152.813C152.801 153.405 151.791 153.891 150.737 154.263L127.363 163.472C121.214 165.894 115.043 168.324 108.629 169.921C108.28 170.089 107.879 170.112 107.513 169.985C107.148 169.857 106.848 169.59 106.679 169.242C106.674 169.231 106.669 169.22 106.664 169.21C104.616 166.288 102.898 163.148 101.541 159.849C101.477 159.771 101.433 159.678 101.412 159.579C101.391 159.48 101.395 159.377 101.422 159.279C101.449 159.182 101.5 159.092 101.569 159.018C101.639 158.944 101.725 158.888 101.821 158.854L118.353 149.366C119.537 148.687 120.735 147.997 121.718 147.05C122.433 146.359 123.018 145.545 123.446 144.648C123.788 143.933 123.82 142.246 124.258 141.717C124.687 141.2 126.153 141.158 126.83 140.955C127.785 140.663 128.72 140.31 129.63 139.898C133.328 138.245 136.621 135.844 140.167 133.909C142.155 132.773 144.28 131.895 146.49 131.294V131.294Z" fill="#2F2E41"/>
<path opacity="0.1" d="M137.117 138.38C134.277 140.511 130.599 142.47 127.784 144.657C126.823 145.403 110.807 154.398 110.581 155.592C113.207 156.034 129.937 144.344 132.331 143.177C134.724 142.01 136.846 140.365 138.949 138.732C139.485 138.316 141.756 137.065 140.217 136.6C139.351 136.339 137.757 137.954 137.117 138.38Z" fill="black"/>
<path d="M188.17 56.149C193.568 56.149 197.944 51.778 197.944 46.3861C197.944 40.9942 193.568 36.6232 188.17 36.6232C182.772 36.6232 178.396 40.9942 178.396 46.3861C178.396 51.778 182.772 56.149 188.17 56.149Z" fill="#F8FCFA"/>
<path d="M170.08 57.8976C173.867 57.8976 176.937 54.8313 176.937 51.049C176.937 47.2666 173.867 44.2004 170.08 44.2004C166.294 44.2004 163.224 47.2666 163.224 51.049C163.224 54.8313 166.294 57.8976 170.08 57.8976Z" fill="#F8FCFA"/>
<path d="M44.4828 53.43C47.519 53.43 49.9803 50.9715 49.9803 47.9387C49.9803 44.9059 47.519 42.4474 44.4828 42.4474C41.4465 42.4474 38.9852 44.9059 38.9852 47.9387C38.9852 50.9715 41.4465 53.43 44.4828 53.43Z" fill="#F8FCFA"/>
<path d="M53.534 57.1227C55.6639 57.1227 57.3905 55.398 57.3905 53.2706C57.3905 51.1431 55.6639 49.4185 53.534 49.4185C51.4041 49.4185 49.6775 51.1431 49.6775 53.2706C49.6775 55.398 51.4041 57.1227 53.534 57.1227Z" fill="#F8FCFA"/>
<path d="M106.865 8.39524C109.186 8.39524 111.068 6.5159 111.068 4.19762C111.068 1.87934 109.186 0 106.865 0C104.545 0 102.663 1.87934 102.663 4.19762C102.663 6.5159 104.545 8.39524 106.865 8.39524Z" fill="#F8FCFA"/>
<path opacity="0.17" d="M81.8214 92.637L82.197 89.7407C82.197 89.7407 96.2097 90.7624 94.0202 94.1992C91.8306 97.6359 86.5132 97.9484 86.5132 97.9484L81.8214 92.637Z" fill="#2F2E41"/>
<path d="M92.3987 80.0437C93.2014 80.1319 93.9745 80.3966 94.6627 80.8186C95.3508 81.2407 95.9369 81.8097 96.3789 82.4848V82.4848C96.7816 83.1008 97.0555 83.7918 97.1841 84.5162C97.3127 85.2406 97.2935 85.9835 97.1274 86.7003C96.9614 87.4171 96.6521 88.0929 96.218 88.6873C95.7839 89.2817 95.234 89.7823 94.6013 90.159C94.3694 90.2959 94.1272 90.4148 93.8771 90.5146L85.264 116.83C85.0144 117.349 84.6646 117.814 84.2346 118.198C83.8045 118.582 83.3028 118.877 82.7582 119.066C82.2137 119.256 81.637 119.336 81.0613 119.302C80.4857 119.268 79.9224 119.12 79.404 118.868C78.8855 118.616 78.422 118.264 78.0402 117.833C77.6584 117.401 77.3658 116.898 77.1791 116.353C76.9925 115.808 76.9155 115.232 76.9527 114.657C76.9898 114.082 77.1403 113.52 77.3956 113.004L86.5553 86.9805C86.3058 86.1195 86.2726 85.2103 86.4587 84.3334C86.6447 83.4566 87.0443 82.639 87.6221 81.9531C88.1999 81.2673 88.938 80.7342 89.7711 80.4012C90.6043 80.0681 91.5067 79.9453 92.3987 80.0437Z" fill="#FFB7B7"/>
<path d="M81.9499 89.9874C81.9499 89.9874 86.8851 98.4098 94.0201 94.1991L87.1054 120.63H81.2795L75.2528 119.506L76.9403 108.586L81.9499 89.9874Z" fill="#E8F6EF"/>
<path d="M117.189 95.7441L113.1 90.1376C113.1 90.1376 115.065 84.3223 122.684 86.4488C122.684 86.4488 127.533 97.289 117.189 95.7441Z" fill="#E8F6EF"/>
<path opacity="0.17" d="M117.189 95.7441L113.1 90.1376C113.1 90.1376 115.065 84.3223 122.684 86.4488C122.684 86.4488 127.533 97.289 117.189 95.7441Z" fill="#2F2E41"/>
<path d="M118.271 76.1558C119.451 76.7035 120.394 77.6558 120.93 78.8397C121.466 80.0235 121.558 81.3602 121.191 82.6065L130.35 108.63C130.606 109.146 130.756 109.708 130.794 110.283C130.831 110.858 130.754 111.434 130.567 111.979C130.38 112.524 130.088 113.027 129.706 113.459C129.324 113.89 128.861 114.242 128.342 114.495C127.824 114.747 127.26 114.894 126.685 114.928C126.109 114.962 125.532 114.882 124.988 114.692C124.443 114.503 123.941 114.208 123.511 113.824C123.081 113.44 122.732 112.975 122.482 112.456L113.869 86.1406C113.619 86.0407 113.377 85.9218 113.145 85.7849C112.512 85.4082 111.962 84.9076 111.528 84.3132C111.094 83.7188 110.785 83.043 110.619 82.3262C110.453 81.6094 110.433 80.8665 110.562 80.1421C110.691 79.4177 110.965 78.7267 111.367 78.1107V78.1107C111.809 77.4356 112.395 76.8666 113.083 76.4446C113.772 76.0225 114.545 75.7579 115.347 75.6696C116.348 75.5563 117.361 75.7247 118.271 76.1558Z" fill="#FFB7B7"/>
<path d="M113.1 90.1375C113.1 90.1375 119.846 94.2259 122.684 86.4488L132.19 111.448L129.365 116.382L128.957 116.416C127.272 116.556 125.578 116.286 124.021 115.628C122.463 114.97 121.089 113.945 120.016 112.64V112.64C117.827 109.978 116.337 106.813 115.681 103.431L113.1 90.1375Z" fill="#E8F6EF"/>
</g>
<defs>
<clipPath id="clip0">
<rect width="203" height="187.385" fill="white"/>
</clipPath>
</defs>
</svg>
