<svg width="122" height="184" viewBox="0 0 122 184" fill="none" xmlns="http://www.w3.org/2000/svg">
<g clip-path="url(#clip0)">
<path d="M48.7883 164.902C48.7883 164.902 53.1825 157.629 58.8242 161.929C64.4659 166.229 74.9138 173.485 74.9138 173.485C74.9138 173.485 77.0538 178.125 71.5151 176.382C65.9765 174.639 47.8958 171.834 47.8958 171.834L48.7883 164.902Z" fill="#FEB8B8"/>
<path d="M27.2013 173.941C22.4733 173.941 18.1447 173.484 14.7056 172.404C10.6178 171.12 8.05106 169.043 7.0759 166.227C6.61766 165.032 6.48083 163.735 6.67927 162.469C6.87771 161.203 7.40437 160.012 8.20588 159.018C14.2532 151.069 35.2385 148.827 38.0542 148.562L43.7666 137.65C44.1321 135.047 42.4028 133.076 45.3905 133.026L80.7332 132.542C83.6674 132.48 82.8346 134.313 83.3371 136.851L88.7218 146.548L65.547 156.415L69.0508 165.028L68.8221 165.162C62.0396 169.131 42.534 173.94 27.2013 173.941Z" fill="#282839"/>
<path d="M85.513 146.962C85.513 146.962 117.878 143.226 115.767 158.171C113.657 173.117 89.0309 183.703 51.7407 158.171L55.9623 150.699C55.9623 150.699 69.8582 150.001 78.3013 146.265L85.513 146.962Z" fill="#282839"/>
<path d="M39.6927 79.2542C39.6927 79.2542 33.5413 78.1259 31.8636 87.7161C30.1859 97.3063 27.4986 120.023 27.4986 120.023L19.1545 149.204C18.1704 149.731 17.3552 150.529 16.8042 151.506C16.2531 152.483 15.989 153.598 16.0427 154.721C16.0964 155.843 16.4655 156.928 17.1072 157.847C17.7488 158.765 18.6364 159.481 19.6662 159.91C20.696 160.339 21.8256 160.464 22.9231 160.27C24.0205 160.075 25.0404 159.57 25.8638 158.813C26.6871 158.055 27.2799 157.077 27.5728 155.993C27.8658 154.908 27.8468 153.762 27.5182 152.688L38.683 121.718L40.8111 95.052V81.0797C40.8111 80.7007 40.7065 80.3291 40.5089 80.0067C40.3114 79.6843 40.0288 79.4237 39.6927 79.2542Z" fill="#FEB8B8"/>
<path d="M82.9912 79.2542C82.9912 79.2542 89.1426 78.1259 90.8203 87.7161C92.4979 97.3063 95.1853 120.023 95.1853 120.023L103.529 149.204C104.514 149.731 105.329 150.529 105.88 151.506C106.431 152.483 106.695 153.598 106.641 154.721C106.588 155.843 106.218 156.928 105.577 157.847C104.935 158.765 104.048 159.481 103.018 159.91C101.988 160.339 100.858 160.464 99.7608 160.27C98.6634 160.075 97.6435 159.57 96.8201 158.813C95.9968 158.055 95.404 157.077 95.111 155.993C94.8181 154.908 94.8371 153.762 95.1657 152.688L84.0009 121.718L81.8728 95.052V81.0797C81.8728 80.7007 81.9774 80.3291 82.175 80.0067C82.3725 79.6843 82.6551 79.4237 82.9912 79.2542Z" fill="#FEB8B8"/>
<path d="M82.5224 71.3269L70.8869 66.9369L48.334 66.6433L38.6262 71.3269L41.3528 87.1347C41.3528 87.1347 35.8478 96.538 41.909 105.942L43.2691 139.452C43.2691 139.452 65.0129 152.172 83.3665 136.898L79.2183 105.742C79.2183 105.742 86.1568 91.2861 80.7787 85.9158L82.5224 71.3269Z" fill="#B8DFD8"/>
<path d="M77.7834 76.2394L82.5225 71.3271C82.5225 71.3271 92.8654 76.8152 92.6523 95.171L79.6054 91.1148L77.7834 76.2394Z" fill="#B8DFD8"/>
<path d="M43.8911 76.2393L38.856 71.16C38.856 71.16 29.9716 78.0925 30.1847 96.4483L42.0692 91.1147L43.8911 76.2393Z" fill="#B8DFD8"/>
<path d="M76.7133 161.271C76.7133 161.271 73.0892 153.578 67.0365 157.266C60.9837 160.954 49.8472 167.079 49.8472 167.079C49.8472 167.079 47.2425 171.471 52.9303 170.316C58.6181 169.16 76.8895 168.259 76.8895 168.259L76.7133 161.271Z" fill="#FEB8B8"/>
<path d="M66.6443 23.7599C66.6955 23.7103 66.7491 23.6658 66.7996 23.6149C70.0383 20.3477 70.6947 15.7127 68.2655 13.2623C65.9701 10.9466 61.742 11.4139 58.5505 14.2295C55.8141 11.6014 52.1449 10.8687 49.77 12.683C47.0313 14.775 47.0526 19.457 49.8178 23.1405C50.0071 23.3928 50.2059 23.6313 50.4099 23.8607C46.7302 25.2195 43.5531 27.6857 41.3084 30.9258C39.0638 34.1659 37.8601 38.0234 37.8601 41.9763V60.3362C37.8601 60.8746 37.9652 61.4077 38.1695 61.9051C38.3737 62.4025 38.6731 62.8544 39.0504 63.2351C39.4278 63.6158 39.8758 63.9178 40.3689 64.1238C40.862 64.3298 41.3904 64.4358 41.9241 64.4358H75.5619C76.6036 64.4358 77.6026 64.0184 78.3392 63.2754C79.0757 62.5323 79.4895 61.5246 79.4895 60.4738V41.9763C79.4889 37.9703 78.2518 34.0638 75.9499 30.7994C73.648 27.5349 70.3956 25.0746 66.6443 23.7599Z" fill="#282839"/>
<path d="M70.4931 57.8877C76.7267 51.5994 76.7267 41.404 70.4931 35.1157C64.2595 28.8273 54.1528 28.8274 47.9192 35.1157C41.6857 41.404 41.6856 51.5994 47.9192 57.8877C54.1528 64.176 64.2595 64.176 70.4931 57.8877Z" fill="#FFB6B6"/>
<path d="M42.4336 36.3734C46.0812 38.9095 50.4105 40.2593 54.8405 40.2414C53.2603 41.3467 51.4613 42.0933 49.5675 42.4298C55.4575 43.7043 61.5449 43.7388 67.4487 42.5311C68.761 42.3189 70.0273 41.8801 71.1919 41.2342C71.7723 40.9072 72.278 40.4607 72.6761 39.9236C73.0741 39.3866 73.3557 38.771 73.5025 38.117C73.8948 35.8562 72.1484 33.8021 70.3336 32.4178C67.5549 30.3307 64.3511 28.8927 60.954 28.2079C57.5568 27.5231 54.0512 27.6086 50.6909 28.4582C48.4966 29.0303 46.2985 29.997 44.8733 31.7746C43.4481 33.5522 43.0259 36.2927 44.3838 38.1232L42.4336 36.3734Z" fill="#282839"/>
</g>
<defs>
<clipPath id="clip0">
<rect width="122" height="184" fill="white"/>
</clipPath>
</defs>
</svg>
