<svg width="365" height="130" viewBox="0 0 365 130" fill="none" xmlns="http://www.w3.org/2000/svg">
<path d="M0 20C0 8.9543 8.95431 0 20 0H345C356.046 0 365 8.95431 365 20V110C365 121.046 356.046 130 345 130H20C8.95432 130 0 121.046 0 110V20Z" fill="white" fill-opacity="0.1"/>
<path d="M69.8293 62.2817C71.4683 52.0131 73.9268 46.6484 77 44.0154C56.3561 43.5218 22.7073 54.8766 39.6098 75.6109C52.9268 85.9783 67.7805 75.1173 69.8293 62.2817Z" fill="#B8DFD8"/>
<path d="M77 44.0154L77.9759 45.1546C78.4477 44.7504 78.6215 44.0972 78.413 43.512C78.2045 42.9269 77.6569 42.5307 77.0359 42.5159L77 44.0154ZM69.8293 62.2817L68.348 62.0452V62.0452L69.8293 62.2817ZM33.5103 85.8244C33.4133 86.6471 34.0016 87.3927 34.8244 87.4897C35.6471 87.5867 36.3927 86.9984 36.4897 86.1756L33.5103 85.8244ZM63.8428 53.2554C64.5835 52.8842 64.8829 51.9829 64.5117 51.2423C64.1405 50.5017 63.2392 50.2022 62.4986 50.5734L63.8428 53.2554ZM76.0241 42.8763C72.5151 45.8827 69.9948 51.7279 68.348 62.0452L71.3105 62.5181C72.9417 52.2984 75.3386 47.4141 77.9759 45.1546L76.0241 42.8763ZM36.4897 86.1756C36.6265 85.0152 37.0573 83.7859 37.8198 82.1945C38.5906 80.5859 39.626 78.7522 40.9314 76.3204L38.2881 74.9015C37.0292 77.2468 35.9248 79.2069 35.1144 80.8982C34.2957 82.6067 33.7038 84.1833 33.5103 85.8244L36.4897 86.1756ZM40.9314 76.3204C44.9153 68.8988 51.6622 59.3604 63.8428 53.2554L62.4986 50.5734C49.5575 57.0595 42.4311 67.1835 38.2881 74.9015L40.9314 76.3204ZM68.348 62.0452C67.3971 68.0029 63.4553 73.5245 58.2358 76.3258C53.0991 79.0826 46.6988 79.2289 40.5312 74.4273L38.6883 76.7945C45.8377 82.3604 53.5229 82.2599 59.6545 78.9691C65.7032 75.7228 70.2127 69.396 71.3105 62.5181L68.348 62.0452ZM77.0359 42.5159C66.508 42.2641 52.6337 45.0159 43.4489 50.5691C38.8578 53.3449 35.2193 56.9556 33.9726 61.4571C32.7023 66.0438 34.0239 71.1328 38.4471 76.5587L40.7724 74.6632C36.7443 69.7219 35.9337 65.6162 36.8638 62.2578C37.8176 58.8141 40.7124 55.7293 45.0011 53.1363C53.5761 47.9519 66.8481 45.2731 76.9641 45.515L77.0359 42.5159Z" fill="#B8DFD8"/>
<path d="M40 76C44.1667 68.6667 50.5 60 63 53.5" stroke="#5E5E7B" stroke-width="3" stroke-linecap="round"/>
<path d="M121 42.226C120.844 42.046 120.586 41.86 120.226 41.668C119.878 41.464 119.47 41.29 119.002 41.146C118.534 41.002 118.048 40.93 117.544 40.93C116.692 40.93 116.062 41.086 115.654 41.398C115.258 41.71 115.06 42.142 115.06 42.694C115.06 43.102 115.174 43.426 115.402 43.666C115.63 43.894 115.978 44.092 116.446 44.26C116.914 44.416 117.502 44.578 118.21 44.746C119.074 44.95 119.818 45.196 120.442 45.484C121.078 45.76 121.564 46.132 121.9 46.6C122.248 47.068 122.422 47.686 122.422 48.454C122.422 49.33 122.212 50.038 121.792 50.578C121.372 51.118 120.802 51.514 120.082 51.766C119.374 52.006 118.594 52.126 117.742 52.126C116.77 52.126 115.828 51.976 114.916 51.676C114.004 51.376 113.188 50.95 112.468 50.398L113.386 48.67C113.59 48.874 113.914 49.108 114.358 49.372C114.802 49.624 115.318 49.846 115.906 50.038C116.506 50.218 117.13 50.308 117.778 50.308C118.57 50.308 119.182 50.17 119.614 49.894C120.046 49.606 120.262 49.198 120.262 48.67C120.262 48.238 120.118 47.896 119.83 47.644C119.554 47.38 119.152 47.164 118.624 46.996C118.108 46.816 117.484 46.63 116.752 46.438C115.912 46.222 115.21 45.976 114.646 45.7C114.082 45.424 113.656 45.076 113.368 44.656C113.092 44.236 112.954 43.69 112.954 43.018C112.954 42.178 113.158 41.47 113.566 40.894C113.974 40.306 114.526 39.868 115.222 39.58C115.93 39.28 116.722 39.13 117.598 39.13C118.462 39.13 119.26 39.268 119.992 39.544C120.724 39.82 121.366 40.162 121.918 40.57L121 42.226ZM129.237 51.514C128.985 51.634 128.637 51.772 128.193 51.928C127.749 52.072 127.275 52.144 126.771 52.144C126.147 52.144 125.607 51.976 125.151 51.64C124.707 51.304 124.485 50.758 124.485 50.002V44.116H123.243V42.586H124.485V39.49H126.465V42.586H128.517V44.116H126.465V49.372C126.489 49.708 126.591 49.954 126.771 50.11C126.963 50.254 127.197 50.326 127.473 50.326C127.749 50.326 128.013 50.278 128.265 50.182C128.517 50.086 128.703 50.008 128.823 49.948L129.237 51.514ZM135.9 44.296C135.132 44.32 134.448 44.5 133.848 44.836C133.26 45.16 132.84 45.628 132.588 46.24V52H130.608V42.586H132.444V44.692C132.768 44.044 133.194 43.528 133.722 43.144C134.25 42.748 134.808 42.532 135.396 42.496C135.504 42.496 135.6 42.496 135.684 42.496C135.768 42.496 135.84 42.502 135.9 42.514V44.296ZM141.448 52.18C140.476 52.18 139.624 51.958 138.892 51.514C138.16 51.07 137.59 50.482 137.182 49.75C136.774 49.006 136.57 48.196 136.57 47.32C136.57 46.432 136.774 45.616 137.182 44.872C137.59 44.128 138.16 43.534 138.892 43.09C139.624 42.646 140.482 42.424 141.466 42.424C142.45 42.424 143.302 42.652 144.022 43.108C144.742 43.552 145.294 44.14 145.678 44.872C146.074 45.604 146.272 46.39 146.272 47.23C146.272 47.53 146.254 47.77 146.218 47.95H138.676C138.712 48.502 138.862 48.988 139.126 49.408C139.402 49.816 139.744 50.14 140.152 50.38C140.572 50.608 141.028 50.722 141.52 50.722C142.048 50.722 142.546 50.59 143.014 50.326C143.482 50.062 143.806 49.714 143.986 49.282L145.678 49.768C145.354 50.476 144.814 51.058 144.058 51.514C143.314 51.958 142.444 52.18 141.448 52.18ZM138.622 46.636H144.31C144.262 46.096 144.106 45.622 143.842 45.214C143.578 44.794 143.236 44.47 142.816 44.242C142.408 44.002 141.952 43.882 141.448 43.882C140.956 43.882 140.5 44.002 140.08 44.242C139.672 44.47 139.336 44.794 139.072 45.214C138.808 45.622 138.658 46.096 138.622 46.636ZM151.235 52.18C150.443 52.18 149.693 52.048 148.985 51.784C148.277 51.52 147.671 51.136 147.167 50.632L147.905 49.3C148.445 49.78 148.985 50.128 149.525 50.344C150.065 50.56 150.611 50.668 151.163 50.668C151.715 50.668 152.165 50.566 152.513 50.362C152.861 50.146 153.035 49.834 153.035 49.426C153.035 49.138 152.945 48.916 152.765 48.76C152.585 48.604 152.321 48.478 151.973 48.382C151.637 48.286 151.229 48.166 150.749 48.022C150.077 47.818 149.513 47.608 149.057 47.392C148.601 47.164 148.259 46.888 148.031 46.564C147.803 46.24 147.689 45.826 147.689 45.322C147.689 44.41 148.031 43.702 148.715 43.198C149.399 42.682 150.293 42.424 151.397 42.424C152.081 42.424 152.711 42.532 153.287 42.748C153.875 42.952 154.391 43.276 154.835 43.72L153.989 45.034C153.173 44.29 152.273 43.918 151.289 43.918C150.857 43.918 150.455 44.002 150.083 44.17C149.723 44.338 149.543 44.65 149.543 45.106C149.543 45.49 149.705 45.766 150.029 45.934C150.353 46.102 150.833 46.282 151.469 46.474C152.189 46.69 152.807 46.906 153.323 47.122C153.851 47.326 154.253 47.596 154.529 47.932C154.817 48.256 154.961 48.706 154.961 49.282C154.961 50.194 154.619 50.908 153.935 51.424C153.251 51.928 152.351 52.18 151.235 52.18ZM160.077 52.18C159.285 52.18 158.535 52.048 157.827 51.784C157.119 51.52 156.513 51.136 156.009 50.632L156.747 49.3C157.287 49.78 157.827 50.128 158.367 50.344C158.907 50.56 159.453 50.668 160.005 50.668C160.557 50.668 161.007 50.566 161.355 50.362C161.703 50.146 161.877 49.834 161.877 49.426C161.877 49.138 161.787 48.916 161.607 48.76C161.427 48.604 161.163 48.478 160.815 48.382C160.479 48.286 160.071 48.166 159.591 48.022C158.919 47.818 158.355 47.608 157.899 47.392C157.443 47.164 157.101 46.888 156.873 46.564C156.645 46.24 156.531 45.826 156.531 45.322C156.531 44.41 156.873 43.702 157.557 43.198C158.241 42.682 159.135 42.424 160.239 42.424C160.923 42.424 161.553 42.532 162.129 42.748C162.717 42.952 163.233 43.276 163.677 43.72L162.831 45.034C162.015 44.29 161.115 43.918 160.131 43.918C159.699 43.918 159.297 44.002 158.925 44.17C158.565 44.338 158.385 44.65 158.385 45.106C158.385 45.49 158.547 45.766 158.871 45.934C159.195 46.102 159.675 46.282 160.311 46.474C161.031 46.69 161.649 46.906 162.165 47.122C162.693 47.326 163.095 47.596 163.371 47.932C163.659 48.256 163.803 48.706 163.803 49.282C163.803 50.194 163.461 50.908 162.777 51.424C162.093 51.928 161.193 52.18 160.077 52.18ZM174.284 52.18C173.312 52.18 172.46 51.958 171.728 51.514C170.996 51.07 170.426 50.482 170.018 49.75C169.61 49.006 169.406 48.196 169.406 47.32C169.406 46.432 169.61 45.616 170.018 44.872C170.426 44.128 170.996 43.534 171.728 43.09C172.46 42.646 173.318 42.424 174.302 42.424C175.286 42.424 176.138 42.652 176.858 43.108C177.578 43.552 178.13 44.14 178.514 44.872C178.91 45.604 179.108 46.39 179.108 47.23C179.108 47.53 179.09 47.77 179.054 47.95H171.512C171.548 48.502 171.698 48.988 171.962 49.408C172.238 49.816 172.58 50.14 172.988 50.38C173.408 50.608 173.864 50.722 174.356 50.722C174.884 50.722 175.382 50.59 175.85 50.326C176.318 50.062 176.642 49.714 176.822 49.282L178.514 49.768C178.19 50.476 177.65 51.058 176.894 51.514C176.15 51.958 175.28 52.18 174.284 52.18ZM171.458 46.636H177.146C177.098 46.096 176.942 45.622 176.678 45.214C176.414 44.794 176.072 44.47 175.652 44.242C175.244 44.002 174.788 43.882 174.284 43.882C173.792 43.882 173.336 44.002 172.916 44.242C172.508 44.47 172.172 44.794 171.908 45.214C171.644 45.622 171.494 46.096 171.458 46.636ZM181.488 42.586L183.72 45.808L183.882 46.114L184.044 45.808L186.258 42.586H188.4L185.016 47.302L188.436 52H186.294L184.044 48.796L183.882 48.508L183.72 48.796L181.47 52H179.328L182.748 47.32L179.364 42.586H181.488ZM189.004 49.246C189.004 48.646 189.172 48.124 189.508 47.68C189.844 47.224 190.312 46.876 190.912 46.636C191.524 46.384 192.226 46.258 193.018 46.258C193.438 46.258 193.864 46.294 194.296 46.366C194.74 46.426 195.13 46.516 195.466 46.636V46.042C195.466 45.382 195.268 44.866 194.872 44.494C194.476 44.122 193.906 43.936 193.162 43.936C192.646 43.936 192.148 44.026 191.668 44.206C191.188 44.386 190.69 44.65 190.174 44.998L189.508 43.666C190.132 43.258 190.756 42.952 191.38 42.748C192.016 42.532 192.682 42.424 193.378 42.424C194.638 42.424 195.628 42.76 196.348 43.432C197.08 44.092 197.446 45.034 197.446 46.258V49.768C197.446 49.996 197.482 50.158 197.554 50.254C197.638 50.35 197.776 50.404 197.968 50.416V52C197.788 52.036 197.626 52.06 197.482 52.072C197.338 52.084 197.218 52.09 197.122 52.09C196.69 52.09 196.366 51.988 196.15 51.784C195.946 51.568 195.826 51.328 195.79 51.064L195.736 50.524C195.328 51.052 194.806 51.46 194.17 51.748C193.534 52.036 192.892 52.18 192.244 52.18C191.62 52.18 191.062 52.054 190.57 51.802C190.078 51.538 189.694 51.184 189.418 50.74C189.142 50.296 189.004 49.798 189.004 49.246ZM194.998 49.822C195.31 49.51 195.466 49.216 195.466 48.94V47.86C194.758 47.596 194.038 47.464 193.306 47.464C192.586 47.464 191.998 47.614 191.542 47.914C191.098 48.202 190.876 48.592 190.876 49.084C190.876 49.492 191.038 49.87 191.362 50.218C191.698 50.554 192.178 50.722 192.802 50.722C193.222 50.722 193.63 50.638 194.026 50.47C194.422 50.302 194.746 50.086 194.998 49.822ZM214.248 52H212.268V46.726C212.268 45.862 212.124 45.226 211.836 44.818C211.548 44.398 211.128 44.188 210.576 44.188C210.024 44.188 209.508 44.398 209.028 44.818C208.56 45.226 208.23 45.76 208.038 46.42V52H206.058V46.726C206.058 45.838 205.914 45.196 205.626 44.8C205.338 44.392 204.924 44.188 204.384 44.188C203.832 44.188 203.316 44.392 202.836 44.8C202.368 45.208 202.032 45.742 201.828 46.402V52H199.848V42.586H201.648V44.476C202.008 43.816 202.494 43.312 203.106 42.964C203.718 42.604 204.414 42.424 205.194 42.424C205.974 42.424 206.586 42.628 207.03 43.036C207.486 43.444 207.768 43.954 207.876 44.566C208.692 43.138 209.874 42.424 211.422 42.424C212.166 42.424 212.742 42.604 213.15 42.964C213.558 43.312 213.84 43.78 213.996 44.368C214.164 44.944 214.248 45.574 214.248 46.258V52Z" fill="#B8DFD8"/>
<path d="M122.89 92.028C123.07 92.148 123.16 92.298 123.16 92.478C123.16 92.538 123.136 92.616 123.088 92.712C123.04 92.796 122.974 92.862 122.89 92.91C122.806 92.958 122.716 92.982 122.62 92.982C122.5 92.982 122.398 92.958 122.314 92.91C121.978 92.718 121.708 92.406 121.504 91.974C121.3 91.542 121.198 90.852 121.198 89.904C121.198 89.064 120.964 88.476 120.496 88.14C120.028 87.792 119.47 87.618 118.822 87.618H114.826V92.46C114.826 92.616 114.778 92.748 114.682 92.856C114.586 92.952 114.46 93 114.304 93C114.136 93 113.992 92.952 113.872 92.856C113.752 92.748 113.692 92.616 113.692 92.46V80.94C113.692 80.784 113.74 80.658 113.836 80.562C113.944 80.454 114.076 80.4 114.232 80.4H119.092C119.776 80.4 120.388 80.55 120.928 80.85C121.468 81.138 121.888 81.54 122.188 82.056C122.5 82.572 122.656 83.154 122.656 83.802C122.656 84.57 122.452 85.248 122.044 85.836C121.648 86.412 121.126 86.808 120.478 87.024C121.006 87.228 121.438 87.576 121.774 88.068C122.11 88.548 122.284 89.136 122.296 89.832C122.308 90.576 122.356 91.098 122.44 91.398C122.536 91.698 122.686 91.908 122.89 92.028ZM119.146 86.628C119.566 86.592 119.956 86.454 120.316 86.214C120.676 85.974 120.964 85.65 121.18 85.242C121.396 84.834 121.504 84.366 121.504 83.838C121.504 83.154 121.27 82.59 120.802 82.146C120.346 81.69 119.746 81.462 119.002 81.462H114.826V86.628H119.146ZM133.169 87.87C133.169 88.014 133.115 88.14 133.007 88.248C132.899 88.344 132.773 88.392 132.629 88.392H125.825C125.825 89.112 125.969 89.76 126.257 90.336C126.557 90.9 126.977 91.35 127.517 91.686C128.069 92.01 128.717 92.172 129.461 92.172C130.037 92.172 130.553 92.052 131.009 91.812C131.465 91.572 131.831 91.266 132.107 90.894C132.239 90.786 132.365 90.732 132.485 90.732C132.605 90.732 132.713 90.78 132.809 90.876C132.905 90.972 132.953 91.08 132.953 91.2C132.953 91.332 132.893 91.458 132.773 91.578C132.389 92.046 131.903 92.43 131.315 92.73C130.739 93.03 130.127 93.18 129.479 93.18C128.555 93.18 127.739 92.982 127.031 92.586C126.323 92.19 125.771 91.638 125.375 90.93C124.979 90.21 124.781 89.382 124.781 88.446C124.781 87.462 124.973 86.604 125.357 85.872C125.753 85.128 126.275 84.564 126.923 84.18C127.571 83.784 128.261 83.586 128.993 83.586C129.713 83.586 130.385 83.754 131.009 84.09C131.645 84.426 132.161 84.918 132.557 85.566C132.953 86.214 133.157 86.982 133.169 87.87ZM128.993 84.63C128.297 84.63 127.649 84.87 127.049 85.35C126.461 85.83 126.083 86.52 125.915 87.42H132.053V87.276C131.993 86.736 131.813 86.268 131.513 85.872C131.213 85.464 130.835 85.158 130.379 84.954C129.935 84.738 129.473 84.63 128.993 84.63ZM136.583 92.46C136.583 92.616 136.529 92.748 136.421 92.856C136.325 92.952 136.199 93 136.043 93C135.887 93 135.755 92.952 135.647 92.856C135.551 92.748 135.503 92.616 135.503 92.46V80.22C135.503 80.064 135.551 79.938 135.647 79.842C135.755 79.734 135.887 79.68 136.043 79.68C136.199 79.68 136.325 79.734 136.421 79.842C136.529 79.938 136.583 80.064 136.583 80.22V92.46ZM147.013 83.802C147.169 83.802 147.295 83.856 147.391 83.964C147.499 84.072 147.553 84.204 147.553 84.36V92.46C147.553 92.616 147.499 92.748 147.391 92.856C147.295 92.952 147.169 93 147.013 93C146.857 93 146.725 92.952 146.617 92.856C146.521 92.748 146.473 92.616 146.473 92.46V91.254C146.173 91.794 145.723 92.25 145.123 92.622C144.523 92.994 143.869 93.18 143.161 93.18C142.357 93.18 141.631 92.97 140.983 92.55C140.347 92.13 139.843 91.554 139.471 90.822C139.111 90.09 138.931 89.268 138.931 88.356C138.931 87.444 139.117 86.628 139.489 85.908C139.861 85.176 140.365 84.606 141.001 84.198C141.649 83.79 142.363 83.586 143.143 83.586C143.863 83.586 144.523 83.76 145.123 84.108C145.723 84.456 146.173 84.912 146.473 85.476V84.36C146.473 84.204 146.521 84.072 146.617 83.964C146.725 83.856 146.857 83.802 147.013 83.802ZM143.269 92.172C143.893 92.172 144.451 92.01 144.943 91.686C145.447 91.35 145.837 90.894 146.113 90.318C146.401 89.73 146.545 89.076 146.545 88.356C146.545 87.66 146.401 87.024 146.113 86.448C145.837 85.872 145.447 85.422 144.943 85.098C144.451 84.762 143.893 84.594 143.269 84.594C142.645 84.594 142.081 84.756 141.577 85.08C141.085 85.404 140.695 85.854 140.407 86.43C140.131 86.994 139.993 87.636 139.993 88.356C139.993 89.076 140.131 89.73 140.407 90.318C140.683 90.894 141.067 91.35 141.559 91.686C142.063 92.01 142.633 92.172 143.269 92.172ZM156.923 92.19C157.007 92.286 157.049 92.394 157.049 92.514C157.049 92.658 156.995 92.79 156.887 92.91C156.779 93.018 156.653 93.072 156.509 93.072C156.341 93.072 156.191 92.988 156.059 92.82L153.305 89.256L150.551 92.838C150.443 92.982 150.299 93.054 150.119 93.054C149.987 93.054 149.867 93.012 149.759 92.928C149.651 92.832 149.597 92.712 149.597 92.568C149.597 92.436 149.639 92.322 149.723 92.226L152.675 88.446L149.669 84.576C149.597 84.48 149.561 84.372 149.561 84.252C149.561 84.108 149.615 83.982 149.723 83.874C149.843 83.766 149.975 83.712 150.119 83.712C150.299 83.712 150.443 83.79 150.551 83.946L153.359 87.564L156.059 83.946C156.179 83.79 156.329 83.712 156.509 83.712C156.665 83.712 156.785 83.76 156.869 83.856C156.965 83.94 157.013 84.048 157.013 84.18C157.013 84.312 156.971 84.426 156.887 84.522L153.971 88.356L156.923 92.19ZM166.56 83.802C166.716 83.802 166.842 83.856 166.938 83.964C167.046 84.072 167.1 84.204 167.1 84.36V92.46C167.1 92.616 167.046 92.748 166.938 92.856C166.842 92.952 166.716 93 166.56 93C166.404 93 166.272 92.952 166.164 92.856C166.068 92.748 166.02 92.616 166.02 92.46V91.254C165.72 91.794 165.27 92.25 164.67 92.622C164.07 92.994 163.416 93.18 162.708 93.18C161.904 93.18 161.178 92.97 160.53 92.55C159.894 92.13 159.39 91.554 159.018 90.822C158.658 90.09 158.478 89.268 158.478 88.356C158.478 87.444 158.664 86.628 159.036 85.908C159.408 85.176 159.912 84.606 160.548 84.198C161.196 83.79 161.91 83.586 162.69 83.586C163.41 83.586 164.07 83.76 164.67 84.108C165.27 84.456 165.72 84.912 166.02 85.476V84.36C166.02 84.204 166.068 84.072 166.164 83.964C166.272 83.856 166.404 83.802 166.56 83.802ZM162.816 92.172C163.44 92.172 163.998 92.01 164.49 91.686C164.994 91.35 165.384 90.894 165.66 90.318C165.948 89.73 166.092 89.076 166.092 88.356C166.092 87.66 165.948 87.024 165.66 86.448C165.384 85.872 164.994 85.422 164.49 85.098C163.998 84.762 163.44 84.594 162.816 84.594C162.192 84.594 161.628 84.756 161.124 85.08C160.632 85.404 160.242 85.854 159.954 86.43C159.678 86.994 159.54 87.636 159.54 88.356C159.54 89.076 159.678 89.73 159.954 90.318C160.23 90.894 160.614 91.35 161.106 91.686C161.61 92.01 162.18 92.172 162.816 92.172ZM171.718 84.846V90.876C171.718 91.332 171.802 91.644 171.97 91.812C172.138 91.968 172.36 92.046 172.636 92.046C172.708 92.046 172.798 92.034 172.906 92.01C173.014 91.974 173.098 91.956 173.158 91.956C173.266 91.956 173.356 92.004 173.428 92.1C173.512 92.184 173.554 92.286 173.554 92.406C173.554 92.574 173.458 92.718 173.266 92.838C173.074 92.946 172.846 93 172.582 93C172.258 93 171.97 92.97 171.718 92.91C171.466 92.85 171.22 92.67 170.98 92.37C170.752 92.07 170.638 91.59 170.638 90.93V84.846H169.324C169.18 84.846 169.054 84.798 168.946 84.702C168.85 84.606 168.802 84.486 168.802 84.342C168.802 84.198 168.85 84.078 168.946 83.982C169.054 83.886 169.18 83.838 169.324 83.838H170.638V81.84C170.638 81.684 170.686 81.558 170.782 81.462C170.89 81.354 171.022 81.3 171.178 81.3C171.334 81.3 171.46 81.354 171.556 81.462C171.664 81.558 171.718 81.684 171.718 81.84V83.838H173.518C173.65 83.838 173.764 83.892 173.86 84C173.968 84.108 174.022 84.228 174.022 84.36C174.022 84.504 173.974 84.624 173.878 84.72C173.782 84.804 173.662 84.846 173.518 84.846H171.718ZM177.062 92.46C177.062 92.616 177.008 92.748 176.9 92.856C176.804 92.952 176.678 93 176.522 93C176.366 93 176.234 92.952 176.126 92.856C176.03 92.748 175.982 92.616 175.982 92.46V84.18C175.982 84.024 176.03 83.898 176.126 83.802C176.234 83.694 176.366 83.64 176.522 83.64C176.678 83.64 176.804 83.694 176.9 83.802C177.008 83.898 177.062 84.024 177.062 84.18V92.46ZM176.522 82.434C176.282 82.434 176.096 82.38 175.964 82.272C175.832 82.152 175.766 81.984 175.766 81.768V81.588C175.766 81.372 175.832 81.21 175.964 81.102C176.108 80.982 176.3 80.922 176.54 80.922C177.02 80.922 177.26 81.144 177.26 81.588V81.768C177.26 81.984 177.194 82.152 177.062 82.272C176.942 82.38 176.762 82.434 176.522 82.434ZM188.363 88.392C188.363 89.292 188.165 90.108 187.769 90.84C187.373 91.572 186.827 92.148 186.131 92.568C185.435 92.976 184.661 93.18 183.809 93.18C182.957 93.18 182.183 92.976 181.487 92.568C180.791 92.148 180.245 91.572 179.849 90.84C179.453 90.108 179.255 89.292 179.255 88.392C179.255 87.492 179.453 86.676 179.849 85.944C180.245 85.212 180.791 84.636 181.487 84.216C182.183 83.796 182.957 83.586 183.809 83.586C184.661 83.586 185.435 83.796 186.131 84.216C186.827 84.636 187.373 85.212 187.769 85.944C188.165 86.676 188.363 87.492 188.363 88.392ZM187.283 88.392C187.283 87.672 187.133 87.024 186.833 86.448C186.533 85.872 186.113 85.422 185.573 85.098C185.045 84.762 184.457 84.594 183.809 84.594C183.161 84.594 182.573 84.762 182.045 85.098C181.517 85.422 181.097 85.872 180.785 86.448C180.485 87.024 180.335 87.672 180.335 88.392C180.335 89.1 180.485 89.742 180.785 90.318C181.097 90.894 181.517 91.35 182.045 91.686C182.573 92.01 183.161 92.172 183.809 92.172C184.457 92.172 185.045 92.01 185.573 91.686C186.113 91.362 186.533 90.912 186.833 90.336C187.133 89.76 187.283 89.112 187.283 88.392ZM194.91 83.586C196.026 83.586 196.842 83.916 197.358 84.576C197.886 85.224 198.15 86.088 198.15 87.168V92.46C198.15 92.616 198.096 92.748 197.988 92.856C197.88 92.952 197.754 93 197.61 93C197.454 93 197.322 92.952 197.214 92.856C197.118 92.748 197.07 92.616 197.07 92.46V87.222C197.07 86.442 196.872 85.812 196.476 85.332C196.092 84.84 195.492 84.594 194.676 84.594C194.16 84.594 193.668 84.714 193.2 84.954C192.744 85.194 192.372 85.518 192.084 85.926C191.796 86.322 191.652 86.754 191.652 87.222V92.46C191.652 92.616 191.598 92.748 191.49 92.856C191.394 92.952 191.268 93 191.112 93C190.956 93 190.824 92.952 190.716 92.856C190.62 92.748 190.572 92.616 190.572 92.46V84.396C190.572 84.24 190.62 84.114 190.716 84.018C190.824 83.91 190.956 83.856 191.112 83.856C191.268 83.856 191.394 83.91 191.49 84.018C191.598 84.114 191.652 84.24 191.652 84.396V85.386C191.976 84.87 192.438 84.444 193.038 84.108C193.65 83.76 194.274 83.586 194.91 83.586Z" fill="#B8DFD8"/>
</svg>
