<svg width="365" height="130" viewBox="0 0 365 130" fill="none" xmlns="http://www.w3.org/2000/svg">
<path d="M0 20C0 8.9543 8.95431 0 20 0H345C356.046 0 365 8.95431 365 20V110C365 121.046 356.046 130 345 130H20C8.95432 130 0 121.046 0 110V20Z" fill="white" fill-opacity="0.1"/>
<path d="M70.7 60.0586C70.0282 56.0964 68.1952 52.5286 65.5141 49.9645C62.8331 47.4004 59.4702 45.9991 56 46C50.22 46 45.2 49.8172 42.7 55.4034C39.7605 55.7731 37.042 57.394 35.067 59.9546C33.0919 62.5152 31.9997 65.8349 32 69.2759C32 76.9802 37.38 83.2414 44 83.2414H70C75.52 83.2414 80 78.0276 80 71.6034C80 65.4586 75.9 60.4776 70.7 60.0586Z" fill="#B8DFD8"/>
<path d="M113.44 52V39.22H119.002C119.578 39.22 120.106 39.34 120.586 39.58C121.066 39.82 121.48 40.138 121.828 40.534C122.188 40.93 122.464 41.374 122.656 41.866C122.86 42.358 122.962 42.862 122.962 43.378C122.962 43.954 122.854 44.5 122.638 45.016C122.434 45.52 122.146 45.958 121.774 46.33C121.402 46.702 120.964 46.972 120.46 47.14L123.466 52H121.198L118.426 47.554H115.456V52H113.44ZM115.456 45.772H118.984C119.356 45.772 119.686 45.664 119.974 45.448C120.262 45.22 120.49 44.926 120.658 44.566C120.826 44.206 120.91 43.81 120.91 43.378C120.91 42.934 120.814 42.538 120.622 42.19C120.43 41.83 120.178 41.542 119.866 41.326C119.554 41.11 119.224 41.002 118.876 41.002H115.456V45.772ZM129.056 52.18C128.084 52.18 127.232 51.958 126.5 51.514C125.768 51.07 125.198 50.482 124.79 49.75C124.382 49.006 124.178 48.196 124.178 47.32C124.178 46.432 124.382 45.616 124.79 44.872C125.198 44.128 125.768 43.534 126.5 43.09C127.232 42.646 128.09 42.424 129.074 42.424C130.058 42.424 130.91 42.652 131.63 43.108C132.35 43.552 132.902 44.14 133.286 44.872C133.682 45.604 133.88 46.39 133.88 47.23C133.88 47.53 133.862 47.77 133.826 47.95H126.284C126.32 48.502 126.47 48.988 126.734 49.408C127.01 49.816 127.352 50.14 127.76 50.38C128.18 50.608 128.636 50.722 129.128 50.722C129.656 50.722 130.154 50.59 130.622 50.326C131.09 50.062 131.414 49.714 131.594 49.282L133.286 49.768C132.962 50.476 132.422 51.058 131.666 51.514C130.922 51.958 130.052 52.18 129.056 52.18ZM126.23 46.636H131.918C131.87 46.096 131.714 45.622 131.45 45.214C131.186 44.794 130.844 44.47 130.424 44.242C130.016 44.002 129.56 43.882 129.056 43.882C128.564 43.882 128.108 44.002 127.688 44.242C127.28 44.47 126.944 44.794 126.68 45.214C126.416 45.622 126.266 46.096 126.23 46.636ZM138.843 52.18C138.051 52.18 137.301 52.048 136.593 51.784C135.885 51.52 135.279 51.136 134.775 50.632L135.513 49.3C136.053 49.78 136.593 50.128 137.133 50.344C137.673 50.56 138.219 50.668 138.771 50.668C139.323 50.668 139.773 50.566 140.121 50.362C140.469 50.146 140.643 49.834 140.643 49.426C140.643 49.138 140.553 48.916 140.373 48.76C140.193 48.604 139.929 48.478 139.581 48.382C139.245 48.286 138.837 48.166 138.357 48.022C137.685 47.818 137.121 47.608 136.665 47.392C136.209 47.164 135.867 46.888 135.639 46.564C135.411 46.24 135.297 45.826 135.297 45.322C135.297 44.41 135.639 43.702 136.323 43.198C137.007 42.682 137.901 42.424 139.005 42.424C139.689 42.424 140.319 42.532 140.895 42.748C141.483 42.952 141.999 43.276 142.443 43.72L141.597 45.034C140.781 44.29 139.881 43.918 138.897 43.918C138.465 43.918 138.063 44.002 137.691 44.17C137.331 44.338 137.151 44.65 137.151 45.106C137.151 45.49 137.313 45.766 137.637 45.934C137.961 46.102 138.441 46.282 139.077 46.474C139.797 46.69 140.415 46.906 140.931 47.122C141.459 47.326 141.861 47.596 142.137 47.932C142.425 48.256 142.569 48.706 142.569 49.282C142.569 50.194 142.227 50.908 141.543 51.424C140.859 51.928 139.959 52.18 138.843 52.18ZM149.682 52.18C148.926 52.18 148.26 52 147.684 51.64C147.108 51.28 146.652 50.812 146.316 50.236V55.834H144.336V42.586H146.082V44.278C146.442 43.714 146.91 43.264 147.486 42.928C148.062 42.592 148.704 42.424 149.412 42.424C150.276 42.424 151.038 42.652 151.698 43.108C152.37 43.552 152.898 44.146 153.282 44.89C153.666 45.622 153.858 46.42 153.858 47.284C153.858 48.196 153.678 49.024 153.318 49.768C152.958 50.5 152.466 51.088 151.842 51.532C151.218 51.964 150.498 52.18 149.682 52.18ZM149.034 50.488C149.598 50.488 150.084 50.338 150.492 50.038C150.912 49.726 151.236 49.33 151.464 48.85C151.704 48.358 151.824 47.836 151.824 47.284C151.824 46.708 151.692 46.18 151.428 45.7C151.176 45.22 150.828 44.836 150.384 44.548C149.952 44.26 149.454 44.116 148.89 44.116C148.554 44.116 148.2 44.2 147.828 44.368C147.468 44.536 147.15 44.758 146.874 45.034C146.598 45.31 146.412 45.622 146.316 45.97V48.436C146.556 49.012 146.922 49.498 147.414 49.894C147.918 50.29 148.458 50.488 149.034 50.488ZM155.639 41.038V38.86H157.619V41.038H155.639ZM155.639 52V42.586H157.619V52H155.639ZM165.291 44.296C164.523 44.32 163.839 44.5 163.239 44.836C162.651 45.16 162.231 45.628 161.979 46.24V52H159.999V42.586H161.835V44.692C162.159 44.044 162.585 43.528 163.113 43.144C163.641 42.748 164.199 42.532 164.787 42.496C164.895 42.496 164.991 42.496 165.075 42.496C165.159 42.496 165.231 42.502 165.291 42.514V44.296ZM170.839 52.18C169.867 52.18 169.015 51.958 168.283 51.514C167.551 51.07 166.981 50.482 166.573 49.75C166.165 49.006 165.961 48.196 165.961 47.32C165.961 46.432 166.165 45.616 166.573 44.872C166.981 44.128 167.551 43.534 168.283 43.09C169.015 42.646 169.873 42.424 170.857 42.424C171.841 42.424 172.693 42.652 173.413 43.108C174.133 43.552 174.685 44.14 175.069 44.872C175.465 45.604 175.663 46.39 175.663 47.23C175.663 47.53 175.645 47.77 175.609 47.95H168.067C168.103 48.502 168.253 48.988 168.517 49.408C168.793 49.816 169.135 50.14 169.543 50.38C169.963 50.608 170.419 50.722 170.911 50.722C171.439 50.722 171.937 50.59 172.405 50.326C172.873 50.062 173.197 49.714 173.377 49.282L175.069 49.768C174.745 50.476 174.205 51.058 173.449 51.514C172.705 51.958 171.835 52.18 170.839 52.18ZM168.013 46.636H173.701C173.653 46.096 173.497 45.622 173.233 45.214C172.969 44.794 172.627 44.47 172.207 44.242C171.799 44.002 171.343 43.882 170.839 43.882C170.347 43.882 169.891 44.002 169.471 44.242C169.063 44.47 168.727 44.794 168.463 45.214C168.199 45.622 168.049 46.096 168.013 46.636ZM182.57 44.296C181.802 44.32 181.118 44.5 180.518 44.836C179.93 45.16 179.51 45.628 179.258 46.24V52H177.278V42.586H179.114V44.692C179.438 44.044 179.864 43.528 180.392 43.144C180.92 42.748 181.478 42.532 182.066 42.496C182.174 42.496 182.27 42.496 182.354 42.496C182.438 42.496 182.51 42.502 182.57 42.514V44.296ZM192.319 52.18C191.347 52.18 190.495 51.958 189.763 51.514C189.031 51.07 188.461 50.482 188.053 49.75C187.645 49.006 187.441 48.196 187.441 47.32C187.441 46.432 187.645 45.616 188.053 44.872C188.461 44.128 189.031 43.534 189.763 43.09C190.495 42.646 191.353 42.424 192.337 42.424C193.321 42.424 194.173 42.652 194.893 43.108C195.613 43.552 196.165 44.14 196.549 44.872C196.945 45.604 197.143 46.39 197.143 47.23C197.143 47.53 197.125 47.77 197.089 47.95H189.547C189.583 48.502 189.733 48.988 189.997 49.408C190.273 49.816 190.615 50.14 191.023 50.38C191.443 50.608 191.899 50.722 192.391 50.722C192.919 50.722 193.417 50.59 193.885 50.326C194.353 50.062 194.677 49.714 194.857 49.282L196.549 49.768C196.225 50.476 195.685 51.058 194.929 51.514C194.185 51.958 193.315 52.18 192.319 52.18ZM189.493 46.636H195.181C195.133 46.096 194.977 45.622 194.713 45.214C194.449 44.794 194.107 44.47 193.687 44.242C193.279 44.002 192.823 43.882 192.319 43.882C191.827 43.882 191.371 44.002 190.951 44.242C190.543 44.47 190.207 44.794 189.943 45.214C189.679 45.622 189.529 46.096 189.493 46.636ZM207.2 52H205.22V46.726C205.22 45.838 205.076 45.196 204.788 44.8C204.512 44.392 204.098 44.188 203.546 44.188C203.162 44.188 202.778 44.284 202.394 44.476C202.022 44.668 201.686 44.932 201.386 45.268C201.086 45.604 200.87 45.982 200.738 46.402V52H198.758V42.586H200.558V44.476C200.918 43.852 201.44 43.354 202.124 42.982C202.808 42.61 203.564 42.424 204.392 42.424C205.136 42.424 205.712 42.604 206.12 42.964C206.528 43.312 206.81 43.774 206.966 44.35C207.122 44.926 207.2 45.562 207.2 46.258V52ZM218.212 52.18C217.24 52.18 216.388 51.958 215.656 51.514C214.924 51.058 214.354 50.458 213.946 49.714C213.538 48.97 213.334 48.16 213.334 47.284C213.334 46.408 213.532 45.604 213.928 44.872C214.336 44.128 214.9 43.534 215.62 43.09C216.352 42.646 217.216 42.424 218.212 42.424C219.184 42.424 220.018 42.64 220.714 43.072C221.422 43.492 221.95 44.056 222.298 44.764L220.372 45.376C220.156 44.98 219.85 44.674 219.454 44.458C219.07 44.23 218.644 44.116 218.176 44.116C217.648 44.116 217.168 44.254 216.736 44.53C216.316 44.794 215.98 45.166 215.728 45.646C215.488 46.126 215.368 46.672 215.368 47.284C215.368 47.896 215.494 48.442 215.746 48.922C216.01 49.402 216.352 49.786 216.772 50.074C217.204 50.35 217.678 50.488 218.194 50.488C218.674 50.488 219.13 50.362 219.562 50.11C219.994 49.858 220.282 49.552 220.426 49.192L222.37 49.768C222.058 50.476 221.536 51.058 220.804 51.514C220.072 51.958 219.208 52.18 218.212 52.18ZM223.317 49.246C223.317 48.646 223.485 48.124 223.821 47.68C224.157 47.224 224.625 46.876 225.225 46.636C225.837 46.384 226.539 46.258 227.331 46.258C227.751 46.258 228.177 46.294 228.609 46.366C229.053 46.426 229.443 46.516 229.779 46.636V46.042C229.779 45.382 229.581 44.866 229.185 44.494C228.789 44.122 228.219 43.936 227.475 43.936C226.959 43.936 226.461 44.026 225.981 44.206C225.501 44.386 225.003 44.65 224.487 44.998L223.821 43.666C224.445 43.258 225.069 42.952 225.693 42.748C226.329 42.532 226.995 42.424 227.691 42.424C228.951 42.424 229.941 42.76 230.661 43.432C231.393 44.092 231.759 45.034 231.759 46.258V49.768C231.759 49.996 231.795 50.158 231.867 50.254C231.951 50.35 232.089 50.404 232.281 50.416V52C232.101 52.036 231.939 52.06 231.795 52.072C231.651 52.084 231.531 52.09 231.435 52.09C231.003 52.09 230.679 51.988 230.463 51.784C230.259 51.568 230.139 51.328 230.103 51.064L230.049 50.524C229.641 51.052 229.119 51.46 228.483 51.748C227.847 52.036 227.205 52.18 226.557 52.18C225.933 52.18 225.375 52.054 224.883 51.802C224.391 51.538 224.007 51.184 223.731 50.74C223.455 50.296 223.317 49.798 223.317 49.246ZM229.311 49.822C229.623 49.51 229.779 49.216 229.779 48.94V47.86C229.071 47.596 228.351 47.464 227.619 47.464C226.899 47.464 226.311 47.614 225.855 47.914C225.411 48.202 225.188 48.592 225.188 49.084C225.188 49.492 225.351 49.87 225.675 50.218C226.011 50.554 226.491 50.722 227.115 50.722C227.535 50.722 227.943 50.638 228.339 50.47C228.735 50.302 229.059 50.086 229.311 49.822ZM239.453 44.296C238.685 44.32 238.001 44.5 237.401 44.836C236.813 45.16 236.393 45.628 236.141 46.24V52H234.161V42.586H235.997V44.692C236.321 44.044 236.747 43.528 237.275 43.144C237.803 42.748 238.361 42.532 238.949 42.496C239.057 42.496 239.153 42.496 239.237 42.496C239.321 42.496 239.393 42.502 239.453 42.514V44.296ZM246.185 44.296C245.417 44.32 244.733 44.5 244.133 44.836C243.545 45.16 243.125 45.628 242.873 46.24V52H240.893V42.586H242.729V44.692C243.053 44.044 243.479 43.528 244.007 43.144C244.535 42.748 245.093 42.532 245.681 42.496C245.789 42.496 245.885 42.496 245.969 42.496C246.053 42.496 246.125 42.502 246.185 42.514V44.296ZM251.733 52.18C250.761 52.18 249.909 51.958 249.177 51.514C248.445 51.07 247.875 50.482 247.467 49.75C247.059 49.006 246.855 48.196 246.855 47.32C246.855 46.432 247.059 45.616 247.467 44.872C247.875 44.128 248.445 43.534 249.177 43.09C249.909 42.646 250.767 42.424 251.751 42.424C252.735 42.424 253.587 42.652 254.307 43.108C255.027 43.552 255.579 44.14 255.963 44.872C256.359 45.604 256.557 46.39 256.557 47.23C256.557 47.53 256.539 47.77 256.503 47.95H248.961C248.997 48.502 249.147 48.988 249.411 49.408C249.687 49.816 250.029 50.14 250.437 50.38C250.857 50.608 251.313 50.722 251.805 50.722C252.333 50.722 252.831 50.59 253.299 50.326C253.767 50.062 254.091 49.714 254.271 49.282L255.963 49.768C255.639 50.476 255.099 51.058 254.343 51.514C253.599 51.958 252.729 52.18 251.733 52.18ZM248.907 46.636H254.595C254.547 46.096 254.391 45.622 254.127 45.214C253.863 44.794 253.521 44.47 253.101 44.242C252.693 44.002 252.237 43.882 251.733 43.882C251.241 43.882 250.785 44.002 250.365 44.242C249.957 44.47 249.621 44.794 249.357 45.214C249.093 45.622 248.943 46.096 248.907 46.636ZM252.363 41.236L251.067 40.84L252.093 38.86H253.983L252.363 41.236Z" fill="#B8DFD8"/>
<path d="M122.89 92.028C123.07 92.148 123.16 92.298 123.16 92.478C123.16 92.538 123.136 92.616 123.088 92.712C123.04 92.796 122.974 92.862 122.89 92.91C122.806 92.958 122.716 92.982 122.62 92.982C122.5 92.982 122.398 92.958 122.314 92.91C121.978 92.718 121.708 92.406 121.504 91.974C121.3 91.542 121.198 90.852 121.198 89.904C121.198 89.064 120.964 88.476 120.496 88.14C120.028 87.792 119.47 87.618 118.822 87.618H114.826V92.46C114.826 92.616 114.778 92.748 114.682 92.856C114.586 92.952 114.46 93 114.304 93C114.136 93 113.992 92.952 113.872 92.856C113.752 92.748 113.692 92.616 113.692 92.46V80.94C113.692 80.784 113.74 80.658 113.836 80.562C113.944 80.454 114.076 80.4 114.232 80.4H119.092C119.776 80.4 120.388 80.55 120.928 80.85C121.468 81.138 121.888 81.54 122.188 82.056C122.5 82.572 122.656 83.154 122.656 83.802C122.656 84.57 122.452 85.248 122.044 85.836C121.648 86.412 121.126 86.808 120.478 87.024C121.006 87.228 121.438 87.576 121.774 88.068C122.11 88.548 122.284 89.136 122.296 89.832C122.308 90.576 122.356 91.098 122.44 91.398C122.536 91.698 122.686 91.908 122.89 92.028ZM119.146 86.628C119.566 86.592 119.956 86.454 120.316 86.214C120.676 85.974 120.964 85.65 121.18 85.242C121.396 84.834 121.504 84.366 121.504 83.838C121.504 83.154 121.27 82.59 120.802 82.146C120.346 81.69 119.746 81.462 119.002 81.462H114.826V86.628H119.146ZM133.169 87.87C133.169 88.014 133.115 88.14 133.007 88.248C132.899 88.344 132.773 88.392 132.629 88.392H125.825C125.825 89.112 125.969 89.76 126.257 90.336C126.557 90.9 126.977 91.35 127.517 91.686C128.069 92.01 128.717 92.172 129.461 92.172C130.037 92.172 130.553 92.052 131.009 91.812C131.465 91.572 131.831 91.266 132.107 90.894C132.239 90.786 132.365 90.732 132.485 90.732C132.605 90.732 132.713 90.78 132.809 90.876C132.905 90.972 132.953 91.08 132.953 91.2C132.953 91.332 132.893 91.458 132.773 91.578C132.389 92.046 131.903 92.43 131.315 92.73C130.739 93.03 130.127 93.18 129.479 93.18C128.555 93.18 127.739 92.982 127.031 92.586C126.323 92.19 125.771 91.638 125.375 90.93C124.979 90.21 124.781 89.382 124.781 88.446C124.781 87.462 124.973 86.604 125.357 85.872C125.753 85.128 126.275 84.564 126.923 84.18C127.571 83.784 128.261 83.586 128.993 83.586C129.713 83.586 130.385 83.754 131.009 84.09C131.645 84.426 132.161 84.918 132.557 85.566C132.953 86.214 133.157 86.982 133.169 87.87ZM128.993 84.63C128.297 84.63 127.649 84.87 127.049 85.35C126.461 85.83 126.083 86.52 125.915 87.42H132.053V87.276C131.993 86.736 131.813 86.268 131.513 85.872C131.213 85.464 130.835 85.158 130.379 84.954C129.935 84.738 129.473 84.63 128.993 84.63ZM134.873 91.542C134.777 91.386 134.729 91.254 134.729 91.146C134.729 90.99 134.807 90.87 134.963 90.786C135.035 90.714 135.131 90.678 135.251 90.678C135.395 90.678 135.527 90.738 135.647 90.858C136.355 91.794 137.297 92.262 138.473 92.262C139.049 92.262 139.547 92.13 139.967 91.866C140.399 91.59 140.615 91.194 140.615 90.678C140.615 90.174 140.417 89.796 140.021 89.544C139.625 89.292 139.073 89.076 138.365 88.896C137.369 88.644 136.589 88.32 136.025 87.924C135.461 87.516 135.179 86.922 135.179 86.142C135.179 85.65 135.317 85.212 135.593 84.828C135.869 84.432 136.241 84.126 136.709 83.91C137.189 83.694 137.729 83.586 138.329 83.586C138.845 83.586 139.361 83.688 139.877 83.892C140.405 84.084 140.855 84.396 141.227 84.828C141.335 84.912 141.389 85.032 141.389 85.188C141.389 85.332 141.329 85.458 141.209 85.566C141.125 85.638 141.017 85.674 140.885 85.674C140.765 85.674 140.657 85.626 140.561 85.53C140.273 85.206 139.931 84.96 139.535 84.792C139.139 84.624 138.713 84.54 138.257 84.54C137.693 84.54 137.207 84.672 136.799 84.936C136.403 85.2 136.205 85.596 136.205 86.124C136.229 86.604 136.445 86.97 136.853 87.222C137.273 87.474 137.885 87.702 138.689 87.906C139.313 88.062 139.829 88.236 140.237 88.428C140.645 88.62 140.975 88.89 141.227 89.238C141.491 89.586 141.623 90.048 141.623 90.624C141.623 91.404 141.311 92.028 140.687 92.496C140.063 92.952 139.289 93.18 138.365 93.18C136.901 93.18 135.737 92.634 134.873 91.542ZM148.206 83.73C148.998 83.73 149.718 83.934 150.366 84.342C151.014 84.738 151.518 85.296 151.878 86.016C152.25 86.724 152.436 87.522 152.436 88.41C152.436 89.31 152.25 90.12 151.878 90.84C151.518 91.548 151.014 92.106 150.366 92.514C149.73 92.922 149.016 93.126 148.224 93.126C147.528 93.126 146.886 92.964 146.298 92.64C145.722 92.304 145.26 91.86 144.912 91.308V96.06C144.912 96.216 144.858 96.342 144.75 96.438C144.654 96.546 144.528 96.6 144.372 96.6C144.216 96.6 144.084 96.546 143.976 96.438C143.88 96.342 143.832 96.216 143.832 96.06V84.324C143.832 84.168 143.88 84.036 143.976 83.928C144.084 83.82 144.216 83.766 144.372 83.766C144.528 83.766 144.654 83.82 144.75 83.928C144.858 84.036 144.912 84.168 144.912 84.324V85.548C145.224 84.984 145.674 84.54 146.262 84.216C146.85 83.892 147.498 83.73 148.206 83.73ZM148.116 92.118C148.74 92.118 149.298 91.962 149.79 91.65C150.294 91.326 150.684 90.882 150.96 90.318C151.248 89.754 151.392 89.118 151.392 88.41C151.392 87.714 151.248 87.09 150.96 86.538C150.684 85.974 150.294 85.536 149.79 85.224C149.298 84.9 148.74 84.738 148.116 84.738C147.48 84.738 146.91 84.894 146.406 85.206C145.902 85.518 145.512 85.956 145.236 86.52C144.96 87.072 144.822 87.702 144.822 88.41C144.822 89.118 144.96 89.754 145.236 90.318C145.512 90.882 145.902 91.326 146.406 91.65C146.91 91.962 147.48 92.118 148.116 92.118ZM155.704 92.46C155.704 92.616 155.65 92.748 155.542 92.856C155.446 92.952 155.32 93 155.164 93C155.008 93 154.876 92.952 154.768 92.856C154.672 92.748 154.624 92.616 154.624 92.46V84.18C154.624 84.024 154.672 83.898 154.768 83.802C154.876 83.694 155.008 83.64 155.164 83.64C155.32 83.64 155.446 83.694 155.542 83.802C155.65 83.898 155.704 84.024 155.704 84.18V92.46ZM155.164 82.434C154.924 82.434 154.738 82.38 154.606 82.272C154.474 82.152 154.408 81.984 154.408 81.768V81.588C154.408 81.372 154.474 81.21 154.606 81.102C154.75 80.982 154.942 80.922 155.182 80.922C155.662 80.922 155.902 81.144 155.902 81.588V81.768C155.902 81.984 155.836 82.152 155.704 82.272C155.584 82.38 155.404 82.434 155.164 82.434ZM162.812 83.586C163.052 83.586 163.268 83.634 163.46 83.73C163.652 83.826 163.748 83.97 163.748 84.162C163.748 84.33 163.7 84.468 163.604 84.576C163.508 84.672 163.394 84.72 163.262 84.72C163.202 84.72 163.082 84.69 162.902 84.63C162.734 84.57 162.572 84.54 162.416 84.54C161.972 84.54 161.528 84.714 161.084 85.062C160.652 85.398 160.292 85.836 160.004 86.376C159.728 86.916 159.59 87.462 159.59 88.014V92.46C159.59 92.616 159.536 92.748 159.428 92.856C159.332 92.952 159.206 93 159.05 93C158.894 93 158.762 92.952 158.654 92.856C158.558 92.748 158.51 92.616 158.51 92.46V84.396C158.51 84.24 158.558 84.114 158.654 84.018C158.762 83.91 158.894 83.856 159.05 83.856C159.206 83.856 159.332 83.91 159.428 84.018C159.536 84.114 159.59 84.24 159.59 84.396V85.98C159.866 85.296 160.28 84.732 160.832 84.288C161.396 83.832 162.056 83.598 162.812 83.586ZM172.695 83.802C172.851 83.802 172.977 83.856 173.073 83.964C173.181 84.072 173.235 84.204 173.235 84.36V92.46C173.235 92.616 173.181 92.748 173.073 92.856C172.977 92.952 172.851 93 172.695 93C172.539 93 172.407 92.952 172.299 92.856C172.203 92.748 172.155 92.616 172.155 92.46V91.254C171.855 91.794 171.405 92.25 170.805 92.622C170.205 92.994 169.551 93.18 168.843 93.18C168.039 93.18 167.313 92.97 166.665 92.55C166.029 92.13 165.525 91.554 165.153 90.822C164.793 90.09 164.613 89.268 164.613 88.356C164.613 87.444 164.799 86.628 165.171 85.908C165.543 85.176 166.047 84.606 166.683 84.198C167.331 83.79 168.045 83.586 168.825 83.586C169.545 83.586 170.205 83.76 170.805 84.108C171.405 84.456 171.855 84.912 172.155 85.476V84.36C172.155 84.204 172.203 84.072 172.299 83.964C172.407 83.856 172.539 83.802 172.695 83.802ZM168.951 92.172C169.575 92.172 170.133 92.01 170.625 91.686C171.129 91.35 171.519 90.894 171.795 90.318C172.083 89.73 172.227 89.076 172.227 88.356C172.227 87.66 172.083 87.024 171.795 86.448C171.519 85.872 171.129 85.422 170.625 85.098C170.133 84.762 169.575 84.594 168.951 84.594C168.327 84.594 167.763 84.756 167.259 85.08C166.767 85.404 166.377 85.854 166.089 86.43C165.813 86.994 165.675 87.636 165.675 88.356C165.675 89.076 165.813 89.73 166.089 90.318C166.365 90.894 166.749 91.35 167.241 91.686C167.745 92.01 168.315 92.172 168.951 92.172ZM177.853 84.846V90.876C177.853 91.332 177.937 91.644 178.105 91.812C178.273 91.968 178.495 92.046 178.771 92.046C178.843 92.046 178.933 92.034 179.041 92.01C179.149 91.974 179.233 91.956 179.293 91.956C179.401 91.956 179.491 92.004 179.563 92.1C179.647 92.184 179.689 92.286 179.689 92.406C179.689 92.574 179.593 92.718 179.401 92.838C179.209 92.946 178.981 93 178.717 93C178.393 93 178.105 92.97 177.853 92.91C177.601 92.85 177.355 92.67 177.115 92.37C176.887 92.07 176.773 91.59 176.773 90.93V84.846H175.459C175.315 84.846 175.189 84.798 175.081 84.702C174.985 84.606 174.937 84.486 174.937 84.342C174.937 84.198 174.985 84.078 175.081 83.982C175.189 83.886 175.315 83.838 175.459 83.838H176.773V81.84C176.773 81.684 176.821 81.558 176.917 81.462C177.025 81.354 177.157 81.3 177.313 81.3C177.469 81.3 177.595 81.354 177.691 81.462C177.799 81.558 177.853 81.684 177.853 81.84V83.838H179.653C179.785 83.838 179.899 83.892 179.995 84C180.103 84.108 180.157 84.228 180.157 84.36C180.157 84.504 180.109 84.624 180.013 84.72C179.917 84.804 179.797 84.846 179.653 84.846H177.853ZM183.196 92.46C183.196 92.616 183.142 92.748 183.034 92.856C182.938 92.952 182.812 93 182.656 93C182.5 93 182.368 92.952 182.26 92.856C182.164 92.748 182.116 92.616 182.116 92.46V84.18C182.116 84.024 182.164 83.898 182.26 83.802C182.368 83.694 182.5 83.64 182.656 83.64C182.812 83.64 182.938 83.694 183.034 83.802C183.142 83.898 183.196 84.024 183.196 84.18V92.46ZM182.656 82.434C182.416 82.434 182.23 82.38 182.098 82.272C181.966 82.152 181.9 81.984 181.9 81.768V81.588C181.9 81.372 181.966 81.21 182.098 81.102C182.242 80.982 182.434 80.922 182.674 80.922C183.154 80.922 183.394 81.144 183.394 81.588V81.768C183.394 81.984 183.328 82.152 183.196 82.272C183.076 82.38 182.896 82.434 182.656 82.434ZM194.498 88.392C194.498 89.292 194.3 90.108 193.904 90.84C193.508 91.572 192.962 92.148 192.266 92.568C191.57 92.976 190.796 93.18 189.944 93.18C189.092 93.18 188.318 92.976 187.622 92.568C186.926 92.148 186.38 91.572 185.984 90.84C185.588 90.108 185.39 89.292 185.39 88.392C185.39 87.492 185.588 86.676 185.984 85.944C186.38 85.212 186.926 84.636 187.622 84.216C188.318 83.796 189.092 83.586 189.944 83.586C190.796 83.586 191.57 83.796 192.266 84.216C192.962 84.636 193.508 85.212 193.904 85.944C194.3 86.676 194.498 87.492 194.498 88.392ZM193.418 88.392C193.418 87.672 193.268 87.024 192.968 86.448C192.668 85.872 192.248 85.422 191.708 85.098C191.18 84.762 190.592 84.594 189.944 84.594C189.296 84.594 188.708 84.762 188.18 85.098C187.652 85.422 187.232 85.872 186.92 86.448C186.62 87.024 186.47 87.672 186.47 88.392C186.47 89.1 186.62 89.742 186.92 90.318C187.232 90.894 187.652 91.35 188.18 91.686C188.708 92.01 189.296 92.172 189.944 92.172C190.592 92.172 191.18 92.01 191.708 91.686C192.248 91.362 192.668 90.912 192.968 90.336C193.268 89.76 193.418 89.112 193.418 88.392ZM201.045 83.586C202.161 83.586 202.977 83.916 203.493 84.576C204.021 85.224 204.285 86.088 204.285 87.168V92.46C204.285 92.616 204.231 92.748 204.123 92.856C204.015 92.952 203.889 93 203.745 93C203.589 93 203.457 92.952 203.349 92.856C203.253 92.748 203.205 92.616 203.205 92.46V87.222C203.205 86.442 203.007 85.812 202.611 85.332C202.227 84.84 201.627 84.594 200.811 84.594C200.295 84.594 199.803 84.714 199.335 84.954C198.879 85.194 198.507 85.518 198.219 85.926C197.931 86.322 197.787 86.754 197.787 87.222V92.46C197.787 92.616 197.733 92.748 197.625 92.856C197.529 92.952 197.403 93 197.247 93C197.091 93 196.959 92.952 196.851 92.856C196.755 92.748 196.707 92.616 196.707 92.46V84.396C196.707 84.24 196.755 84.114 196.851 84.018C196.959 83.91 197.091 83.856 197.247 83.856C197.403 83.856 197.529 83.91 197.625 84.018C197.733 84.114 197.787 84.24 197.787 84.396V85.386C198.111 84.87 198.573 84.444 199.173 84.108C199.785 83.76 200.409 83.586 201.045 83.586Z" fill="#B8DFD8"/>
</svg>
