<svg width="365" height="130" viewBox="0 0 365 130" fill="none" xmlns="http://www.w3.org/2000/svg">
<path d="M0 20C0 8.9543 8.95431 0 20 0H345C356.046 0 365 8.95431 365 20V110C365 121.046 356.046 130 345 130H20C8.95432 130 0 121.046 0 110V20Z" fill="white" fill-opacity="0.1"/>
<path d="M74.537 59.4724C74.0156 53.4488 70.4501 47.8939 65.4552 44.5664C62.7179 42.7429 59.5465 41.6237 56.2913 41.2003C47.3192 40.0333 37.87 43.9741 34.4852 52.787C31.5755 60.3632 34.4444 67.8846 39.6548 73.6208C41.5351 75.6908 41.7959 79.5829 41.7959 82.2048V87.5218C41.7959 88.3381 42.4577 88.9999 43.274 88.9999H62.5132C63.292 88.9999 63.9356 88.3957 63.9882 87.6188C64.059 86.5729 64.1753 85.6531 64.1753 85.6531C64.5776 83.9279 66.0486 82.5446 69.1768 83.0468C72.4586 83.5733 74.5287 82.5953 74.7127 80.4101C74.7734 79.6893 74.8126 73.5321 74.8126 73.5321C74.9694 73.4425 75.9982 73.238 77.4978 72.8971C78.6638 72.632 79.0745 71.1843 78.2243 70.3433C74.8149 66.9706 74.3577 65.3984 74.2731 65.06C73.8509 63.3786 74.6899 61.2391 74.537 59.4724ZM68.1826 57.4594C67.7089 58.0595 67.1694 58.1768 66.884 58.1924C66.7901 58.1976 66.7246 58.287 66.7502 58.3775C66.8968 58.8938 67.0458 60.3157 64.5003 60.8693C62.113 61.3881 60.6694 63.245 59.7267 64.188C59.0026 64.9115 58.023 65.2464 57.0457 65.4663C56.0474 65.6909 55.0582 65.8875 54.2705 66.5969C53.4409 67.3441 52.2709 71.4585 52.0723 72.1737C52.0549 72.2365 51.9977 72.2797 51.9325 72.2797H50.7073C50.6385 72.2797 50.579 72.2316 50.5648 72.1642L49.9711 69.3561C49.9462 69.2382 44.1909 69.7117 43.7479 67.1428C43.7323 67.0527 43.6413 66.9967 43.5552 67.0278C43.0018 67.2275 41.2264 67.7188 40.2682 66.2339C39.5887 65.1811 39.7692 64.1982 39.8639 63.8589C39.8835 63.7886 39.8482 63.7155 39.7811 63.6866C39.2929 63.4767 37.5286 62.4875 37.7679 59.233C37.9609 56.6096 39.7353 55.4469 39.4872 55.0434C38.7716 53.8798 39.3937 51.9508 40.8598 51.5202C40.9188 51.5029 40.9608 51.4506 40.9664 51.3892L41.0282 50.7054C41.2319 48.2942 44.4001 46.7661 46.5541 47.7685C46.6372 47.8072 46.7359 47.766 46.7635 47.6787C47.0332 46.824 47.5774 46.5887 47.7224 46.5071C48.3903 46.1314 49.2575 46.1778 49.9478 46.4612C50.0037 46.4841 50.0673 46.4701 50.1085 46.426C50.3046 46.2159 51.1089 45.549 52.4409 45.549C53.8072 45.549 54.5017 46.2129 54.7445 46.3988C54.7892 46.4329 54.8492 46.4391 54.8992 46.4136C55.2066 46.2564 56.3289 45.7539 57.4525 46.1409C58.3009 46.4336 58.7826 47.2059 58.9343 47.4869C58.9667 47.547 59.0347 47.5776 59.1012 47.562C59.5041 47.4665 60.8974 47.1989 62.068 47.7275C63.305 48.2867 63.691 49.0948 63.7894 49.3657C63.8094 49.4209 63.8611 49.4578 63.9197 49.4601C64.188 49.4708 64.9282 49.5358 65.3857 49.9202C66.1935 50.5994 66.1146 51.135 66.0216 51.3641C65.9933 51.434 66.0246 51.514 66.0923 51.5471C66.4612 51.7281 67.4956 52.3257 68.1372 53.5951C69.0205 55.3438 68.6671 56.8455 68.1826 57.4594Z" fill="#B8DFD8"/>
<path d="M117.13 39.22H119.038L124.006 52H121.882L120.532 48.526H115.6L114.268 52H112.126L117.13 39.22ZM120.136 47.032L118.084 41.434L115.96 47.032H120.136ZM127.365 52L123.783 42.586H125.835L128.517 50.164L131.199 42.586H133.107L129.525 52H127.365ZM133.615 49.246C133.615 48.646 133.783 48.124 134.119 47.68C134.455 47.224 134.923 46.876 135.523 46.636C136.135 46.384 136.837 46.258 137.629 46.258C138.049 46.258 138.475 46.294 138.907 46.366C139.351 46.426 139.741 46.516 140.077 46.636V46.042C140.077 45.382 139.879 44.866 139.483 44.494C139.087 44.122 138.517 43.936 137.773 43.936C137.257 43.936 136.759 44.026 136.279 44.206C135.799 44.386 135.301 44.65 134.785 44.998L134.119 43.666C134.743 43.258 135.367 42.952 135.991 42.748C136.627 42.532 137.293 42.424 137.989 42.424C139.249 42.424 140.239 42.76 140.959 43.432C141.691 44.092 142.057 45.034 142.057 46.258V49.768C142.057 49.996 142.093 50.158 142.165 50.254C142.249 50.35 142.387 50.404 142.579 50.416V52C142.399 52.036 142.237 52.06 142.093 52.072C141.949 52.084 141.829 52.09 141.733 52.09C141.301 52.09 140.977 51.988 140.761 51.784C140.557 51.568 140.437 51.328 140.401 51.064L140.347 50.524C139.939 51.052 139.417 51.46 138.781 51.748C138.145 52.036 137.503 52.18 136.855 52.18C136.231 52.18 135.673 52.054 135.181 51.802C134.689 51.538 134.305 51.184 134.029 50.74C133.753 50.296 133.615 49.798 133.615 49.246ZM139.609 49.822C139.921 49.51 140.077 49.216 140.077 48.94V47.86C139.369 47.596 138.649 47.464 137.917 47.464C137.197 47.464 136.609 47.614 136.153 47.914C135.709 48.202 135.487 48.592 135.487 49.084C135.487 49.492 135.649 49.87 135.973 50.218C136.309 50.554 136.789 50.722 137.413 50.722C137.833 50.722 138.241 50.638 138.637 50.47C139.033 50.302 139.357 50.086 139.609 49.822ZM152.901 52H150.921V46.726C150.921 45.838 150.777 45.196 150.489 44.8C150.213 44.392 149.799 44.188 149.247 44.188C148.863 44.188 148.479 44.284 148.095 44.476C147.723 44.668 147.387 44.932 147.087 45.268C146.787 45.604 146.571 45.982 146.439 46.402V52H144.459V42.586H146.259V44.476C146.619 43.852 147.141 43.354 147.825 42.982C148.509 42.61 149.265 42.424 150.093 42.424C150.837 42.424 151.413 42.604 151.821 42.964C152.229 43.312 152.511 43.774 152.667 44.35C152.823 44.926 152.901 45.562 152.901 46.258V52ZM160.367 51.514C160.115 51.634 159.767 51.772 159.323 51.928C158.879 52.072 158.405 52.144 157.901 52.144C157.277 52.144 156.737 51.976 156.281 51.64C155.837 51.304 155.615 50.758 155.615 50.002V44.116H154.373V42.586H155.615V39.49H157.595V42.586H159.647V44.116H157.595V49.372C157.619 49.708 157.721 49.954 157.901 50.11C158.093 50.254 158.327 50.326 158.603 50.326C158.879 50.326 159.143 50.278 159.395 50.182C159.647 50.086 159.833 50.008 159.953 49.948L160.367 51.514ZM170.452 52.18C169.48 52.18 168.628 51.958 167.896 51.514C167.164 51.07 166.594 50.482 166.186 49.75C165.778 49.006 165.574 48.196 165.574 47.32C165.574 46.432 165.778 45.616 166.186 44.872C166.594 44.128 167.164 43.534 167.896 43.09C168.628 42.646 169.486 42.424 170.47 42.424C171.454 42.424 172.306 42.652 173.026 43.108C173.746 43.552 174.298 44.14 174.682 44.872C175.078 45.604 175.276 46.39 175.276 47.23C175.276 47.53 175.258 47.77 175.222 47.95H167.68C167.716 48.502 167.866 48.988 168.13 49.408C168.406 49.816 168.748 50.14 169.156 50.38C169.576 50.608 170.032 50.722 170.524 50.722C171.052 50.722 171.55 50.59 172.018 50.326C172.486 50.062 172.81 49.714 172.99 49.282L174.682 49.768C174.358 50.476 173.818 51.058 173.062 51.514C172.318 51.958 171.448 52.18 170.452 52.18ZM167.626 46.636H173.314C173.266 46.096 173.11 45.622 172.846 45.214C172.582 44.794 172.24 44.47 171.82 44.242C171.412 44.002 170.956 43.882 170.452 43.882C169.96 43.882 169.504 44.002 169.084 44.242C168.676 44.47 168.34 44.794 168.076 45.214C167.812 45.622 167.662 46.096 167.626 46.636ZM177.656 42.586L179.888 45.808L180.05 46.114L180.212 45.808L182.426 42.586H184.568L181.184 47.302L184.604 52H182.462L180.212 48.796L180.05 48.508L179.888 48.796L177.638 52H175.496L178.916 47.32L175.532 42.586H177.656ZM185.172 49.246C185.172 48.646 185.34 48.124 185.676 47.68C186.012 47.224 186.48 46.876 187.08 46.636C187.692 46.384 188.394 46.258 189.186 46.258C189.606 46.258 190.032 46.294 190.464 46.366C190.908 46.426 191.298 46.516 191.634 46.636V46.042C191.634 45.382 191.436 44.866 191.04 44.494C190.644 44.122 190.074 43.936 189.33 43.936C188.814 43.936 188.316 44.026 187.836 44.206C187.356 44.386 186.858 44.65 186.342 44.998L185.676 43.666C186.3 43.258 186.924 42.952 187.548 42.748C188.184 42.532 188.85 42.424 189.546 42.424C190.806 42.424 191.796 42.76 192.516 43.432C193.248 44.092 193.614 45.034 193.614 46.258V49.768C193.614 49.996 193.65 50.158 193.722 50.254C193.806 50.35 193.944 50.404 194.136 50.416V52C193.956 52.036 193.794 52.06 193.65 52.072C193.506 52.084 193.386 52.09 193.29 52.09C192.858 52.09 192.534 51.988 192.318 51.784C192.114 51.568 191.994 51.328 191.958 51.064L191.904 50.524C191.496 51.052 190.974 51.46 190.338 51.748C189.702 52.036 189.06 52.18 188.412 52.18C187.788 52.18 187.23 52.054 186.738 51.802C186.246 51.538 185.862 51.184 185.586 50.74C185.31 50.296 185.172 49.798 185.172 49.246ZM191.166 49.822C191.478 49.51 191.634 49.216 191.634 48.94V47.86C190.926 47.596 190.206 47.464 189.474 47.464C188.754 47.464 188.166 47.614 187.71 47.914C187.266 48.202 187.044 48.592 187.044 49.084C187.044 49.492 187.206 49.87 187.53 50.218C187.866 50.554 188.346 50.722 188.97 50.722C189.39 50.722 189.798 50.638 190.194 50.47C190.59 50.302 190.914 50.086 191.166 49.822ZM210.416 52H208.436V46.726C208.436 45.862 208.292 45.226 208.004 44.818C207.716 44.398 207.296 44.188 206.744 44.188C206.192 44.188 205.676 44.398 205.196 44.818C204.728 45.226 204.398 45.76 204.206 46.42V52H202.226V46.726C202.226 45.838 202.082 45.196 201.794 44.8C201.506 44.392 201.092 44.188 200.552 44.188C200 44.188 199.484 44.392 199.004 44.8C198.536 45.208 198.2 45.742 197.996 46.402V52H196.016V42.586H197.816V44.476C198.176 43.816 198.662 43.312 199.274 42.964C199.886 42.604 200.582 42.424 201.362 42.424C202.142 42.424 202.754 42.628 203.198 43.036C203.654 43.444 203.936 43.954 204.044 44.566C204.86 43.138 206.042 42.424 207.59 42.424C208.334 42.424 208.91 42.604 209.318 42.964C209.726 43.312 210.008 43.78 210.164 44.368C210.332 44.944 210.416 45.574 210.416 46.258V52ZM216.964 52.18C215.992 52.18 215.14 51.958 214.408 51.514C213.676 51.07 213.106 50.482 212.698 49.75C212.29 49.006 212.086 48.196 212.086 47.32C212.086 46.432 212.29 45.616 212.698 44.872C213.106 44.128 213.676 43.534 214.408 43.09C215.14 42.646 215.998 42.424 216.982 42.424C217.966 42.424 218.818 42.652 219.538 43.108C220.258 43.552 220.81 44.14 221.194 44.872C221.59 45.604 221.788 46.39 221.788 47.23C221.788 47.53 221.77 47.77 221.734 47.95H214.192C214.228 48.502 214.378 48.988 214.642 49.408C214.918 49.816 215.26 50.14 215.668 50.38C216.088 50.608 216.544 50.722 217.036 50.722C217.564 50.722 218.062 50.59 218.53 50.326C218.998 50.062 219.322 49.714 219.502 49.282L221.194 49.768C220.87 50.476 220.33 51.058 219.574 51.514C218.83 51.958 217.96 52.18 216.964 52.18ZM214.138 46.636H219.826C219.778 46.096 219.622 45.622 219.358 45.214C219.094 44.794 218.752 44.47 218.332 44.242C217.924 44.002 217.468 43.882 216.964 43.882C216.472 43.882 216.016 44.002 215.596 44.242C215.188 44.47 214.852 44.794 214.588 45.214C214.324 45.622 214.174 46.096 214.138 46.636ZM231.845 52H229.865V46.726C229.865 45.838 229.721 45.196 229.433 44.8C229.157 44.392 228.743 44.188 228.191 44.188C227.807 44.188 227.423 44.284 227.039 44.476C226.667 44.668 226.331 44.932 226.031 45.268C225.731 45.604 225.515 45.982 225.383 46.402V52H223.403V42.586H225.203V44.476C225.563 43.852 226.085 43.354 226.769 42.982C227.453 42.61 228.209 42.424 229.037 42.424C229.781 42.424 230.357 42.604 230.765 42.964C231.173 43.312 231.455 43.774 231.611 44.35C231.767 44.926 231.845 45.562 231.845 46.258V52ZM237.491 52.18C236.699 52.18 235.949 52.048 235.241 51.784C234.533 51.52 233.927 51.136 233.423 50.632L234.161 49.3C234.701 49.78 235.241 50.128 235.781 50.344C236.321 50.56 236.867 50.668 237.419 50.668C237.971 50.668 238.421 50.566 238.769 50.362C239.117 50.146 239.291 49.834 239.291 49.426C239.291 49.138 239.201 48.916 239.021 48.76C238.841 48.604 238.577 48.478 238.229 48.382C237.893 48.286 237.485 48.166 237.005 48.022C236.333 47.818 235.769 47.608 235.313 47.392C234.857 47.164 234.515 46.888 234.287 46.564C234.059 46.24 233.945 45.826 233.945 45.322C233.945 44.41 234.287 43.702 234.971 43.198C235.655 42.682 236.549 42.424 237.653 42.424C238.337 42.424 238.967 42.532 239.543 42.748C240.131 42.952 240.647 43.276 241.091 43.72L240.245 45.034C239.429 44.29 238.529 43.918 237.545 43.918C237.113 43.918 236.711 44.002 236.339 44.17C235.979 44.338 235.799 44.65 235.799 45.106C235.799 45.49 235.961 45.766 236.285 45.934C236.609 46.102 237.089 46.282 237.725 46.474C238.445 46.69 239.063 46.906 239.579 47.122C240.107 47.326 240.509 47.596 240.785 47.932C241.073 48.256 241.217 48.706 241.217 49.282C241.217 50.194 240.875 50.908 240.191 51.424C239.507 51.928 238.607 52.18 237.491 52.18Z" fill="#B8DFD8"/>
<path d="M122.89 81.336C123.07 81.444 123.16 81.594 123.16 81.786C123.16 81.894 123.118 82.014 123.034 82.146C122.926 82.278 122.788 82.344 122.62 82.344C122.524 82.344 122.428 82.314 122.332 82.254C121.372 81.618 120.322 81.3 119.182 81.3C118.21 81.3 117.328 81.528 116.536 81.984C115.756 82.44 115.138 83.082 114.682 83.91C114.238 84.726 114.016 85.656 114.016 86.7C114.016 87.768 114.244 88.716 114.7 89.544C115.156 90.36 115.774 90.996 116.554 91.452C117.346 91.896 118.222 92.118 119.182 92.118C120.322 92.118 121.366 91.806 122.314 91.182C122.41 91.122 122.512 91.092 122.62 91.092C122.788 91.092 122.926 91.164 123.034 91.308C123.118 91.404 123.16 91.518 123.16 91.65C123.16 91.842 123.076 91.986 122.908 92.082C122.44 92.394 121.864 92.658 121.18 92.874C120.496 93.078 119.83 93.18 119.182 93.18C118.042 93.18 116.986 92.91 116.014 92.37C115.054 91.818 114.286 91.05 113.71 90.066C113.146 89.082 112.864 87.96 112.864 86.7C112.864 85.488 113.146 84.39 113.71 83.406C114.274 82.41 115.036 81.636 115.996 81.084C116.956 80.52 118.018 80.238 119.182 80.238C119.854 80.238 120.508 80.334 121.144 80.526C121.792 80.718 122.374 80.988 122.89 81.336ZM133.678 88.392C133.678 89.292 133.48 90.108 133.084 90.84C132.688 91.572 132.142 92.148 131.446 92.568C130.75 92.976 129.976 93.18 129.124 93.18C128.272 93.18 127.498 92.976 126.802 92.568C126.106 92.148 125.56 91.572 125.164 90.84C124.768 90.108 124.57 89.292 124.57 88.392C124.57 87.492 124.768 86.676 125.164 85.944C125.56 85.212 126.106 84.636 126.802 84.216C127.498 83.796 128.272 83.586 129.124 83.586C129.976 83.586 130.75 83.796 131.446 84.216C132.142 84.636 132.688 85.212 133.084 85.944C133.48 86.676 133.678 87.492 133.678 88.392ZM132.598 88.392C132.598 87.672 132.448 87.024 132.148 86.448C131.848 85.872 131.428 85.422 130.888 85.098C130.36 84.762 129.772 84.594 129.124 84.594C128.476 84.594 127.888 84.762 127.36 85.098C126.832 85.422 126.412 85.872 126.1 86.448C125.8 87.024 125.65 87.672 125.65 88.392C125.65 89.1 125.8 89.742 126.1 90.318C126.412 90.894 126.832 91.35 127.36 91.686C127.888 92.01 128.476 92.172 129.124 92.172C129.772 92.172 130.36 92.01 130.888 91.686C131.428 91.362 131.848 90.912 132.148 90.336C132.448 89.76 132.598 89.112 132.598 88.392ZM140.225 83.586C141.341 83.586 142.157 83.916 142.673 84.576C143.201 85.224 143.465 86.088 143.465 87.168V92.46C143.465 92.616 143.411 92.748 143.303 92.856C143.195 92.952 143.069 93 142.925 93C142.769 93 142.637 92.952 142.529 92.856C142.433 92.748 142.385 92.616 142.385 92.46V87.222C142.385 86.442 142.187 85.812 141.791 85.332C141.407 84.84 140.807 84.594 139.991 84.594C139.475 84.594 138.983 84.714 138.515 84.954C138.059 85.194 137.687 85.518 137.399 85.926C137.111 86.322 136.967 86.754 136.967 87.222V92.46C136.967 92.616 136.913 92.748 136.805 92.856C136.709 92.952 136.583 93 136.427 93C136.271 93 136.139 92.952 136.031 92.856C135.935 92.748 135.887 92.616 135.887 92.46V84.396C135.887 84.24 135.935 84.114 136.031 84.018C136.139 83.91 136.271 83.856 136.427 83.856C136.583 83.856 136.709 83.91 136.805 84.018C136.913 84.114 136.967 84.24 136.967 84.396V85.386C137.291 84.87 137.753 84.444 138.353 84.108C138.965 83.76 139.589 83.586 140.225 83.586ZM150.271 83.586C150.835 83.586 151.357 83.652 151.837 83.784C152.329 83.904 152.719 84.072 153.007 84.288C153.307 84.504 153.457 84.738 153.457 84.99C153.457 85.122 153.409 85.242 153.313 85.35C153.229 85.458 153.121 85.512 152.989 85.512C152.869 85.512 152.767 85.488 152.683 85.44C152.611 85.392 152.527 85.32 152.431 85.224C152.275 85.068 152.125 84.954 151.981 84.882C151.801 84.798 151.561 84.732 151.261 84.684C150.973 84.624 150.661 84.594 150.325 84.594C149.665 84.594 149.059 84.762 148.507 85.098C147.967 85.434 147.541 85.89 147.229 86.466C146.917 87.042 146.761 87.678 146.761 88.374C146.761 89.094 146.911 89.742 147.211 90.318C147.511 90.894 147.925 91.35 148.453 91.686C148.993 92.01 149.605 92.172 150.289 92.172C150.721 92.172 151.063 92.136 151.315 92.064C151.579 91.992 151.837 91.89 152.089 91.758C152.173 91.71 152.317 91.602 152.521 91.434C152.617 91.35 152.701 91.29 152.773 91.254C152.845 91.206 152.923 91.182 153.007 91.182C153.151 91.182 153.265 91.23 153.349 91.326C153.433 91.41 153.475 91.524 153.475 91.668C153.475 91.872 153.331 92.094 153.043 92.334C152.755 92.562 152.359 92.76 151.855 92.928C151.351 93.096 150.793 93.18 150.181 93.18C149.305 93.18 148.525 92.976 147.841 92.568C147.157 92.148 146.623 91.572 146.239 90.84C145.867 90.108 145.681 89.286 145.681 88.374C145.681 87.498 145.873 86.7 146.257 85.98C146.641 85.248 147.181 84.666 147.877 84.234C148.573 83.802 149.371 83.586 150.271 83.586ZM163.315 87.87C163.315 88.014 163.261 88.14 163.153 88.248C163.045 88.344 162.919 88.392 162.775 88.392H155.971C155.971 89.112 156.115 89.76 156.403 90.336C156.703 90.9 157.123 91.35 157.663 91.686C158.215 92.01 158.863 92.172 159.607 92.172C160.183 92.172 160.699 92.052 161.155 91.812C161.611 91.572 161.977 91.266 162.253 90.894C162.385 90.786 162.511 90.732 162.631 90.732C162.751 90.732 162.859 90.78 162.955 90.876C163.051 90.972 163.099 91.08 163.099 91.2C163.099 91.332 163.039 91.458 162.919 91.578C162.535 92.046 162.049 92.43 161.461 92.73C160.885 93.03 160.273 93.18 159.625 93.18C158.701 93.18 157.885 92.982 157.177 92.586C156.469 92.19 155.917 91.638 155.521 90.93C155.125 90.21 154.927 89.382 154.927 88.446C154.927 87.462 155.119 86.604 155.503 85.872C155.899 85.128 156.421 84.564 157.069 84.18C157.717 83.784 158.407 83.586 159.139 83.586C159.859 83.586 160.531 83.754 161.155 84.09C161.791 84.426 162.307 84.918 162.703 85.566C163.099 86.214 163.303 86.982 163.315 87.87ZM159.139 84.63C158.443 84.63 157.795 84.87 157.195 85.35C156.607 85.83 156.229 86.52 156.061 87.42H162.199V87.276C162.139 86.736 161.959 86.268 161.659 85.872C161.359 85.464 160.981 85.158 160.525 84.954C160.081 84.738 159.619 84.63 159.139 84.63ZM169.879 83.586C170.995 83.586 171.811 83.916 172.327 84.576C172.855 85.224 173.119 86.088 173.119 87.168V92.46C173.119 92.616 173.065 92.748 172.957 92.856C172.849 92.952 172.723 93 172.579 93C172.423 93 172.291 92.952 172.183 92.856C172.087 92.748 172.039 92.616 172.039 92.46V87.222C172.039 86.442 171.841 85.812 171.445 85.332C171.061 84.84 170.461 84.594 169.645 84.594C169.129 84.594 168.637 84.714 168.169 84.954C167.713 85.194 167.341 85.518 167.053 85.926C166.765 86.322 166.621 86.754 166.621 87.222V92.46C166.621 92.616 166.567 92.748 166.459 92.856C166.363 92.952 166.237 93 166.081 93C165.925 93 165.793 92.952 165.685 92.856C165.589 92.748 165.541 92.616 165.541 92.46V84.396C165.541 84.24 165.589 84.114 165.685 84.018C165.793 83.91 165.925 83.856 166.081 83.856C166.237 83.856 166.363 83.91 166.459 84.018C166.567 84.114 166.621 84.24 166.621 84.396V85.386C166.945 84.87 167.407 84.444 168.007 84.108C168.619 83.76 169.243 83.586 169.879 83.586ZM177.747 84.846V90.876C177.747 91.332 177.831 91.644 177.999 91.812C178.167 91.968 178.389 92.046 178.665 92.046C178.737 92.046 178.827 92.034 178.935 92.01C179.043 91.974 179.127 91.956 179.187 91.956C179.295 91.956 179.385 92.004 179.457 92.1C179.541 92.184 179.583 92.286 179.583 92.406C179.583 92.574 179.487 92.718 179.295 92.838C179.103 92.946 178.875 93 178.611 93C178.287 93 177.999 92.97 177.747 92.91C177.495 92.85 177.249 92.67 177.009 92.37C176.781 92.07 176.667 91.59 176.667 90.93V84.846H175.353C175.209 84.846 175.083 84.798 174.975 84.702C174.879 84.606 174.831 84.486 174.831 84.342C174.831 84.198 174.879 84.078 174.975 83.982C175.083 83.886 175.209 83.838 175.353 83.838H176.667V81.84C176.667 81.684 176.715 81.558 176.811 81.462C176.919 81.354 177.051 81.3 177.207 81.3C177.363 81.3 177.489 81.354 177.585 81.462C177.693 81.558 177.747 81.684 177.747 81.84V83.838H179.547C179.679 83.838 179.793 83.892 179.889 84C179.997 84.108 180.051 84.228 180.051 84.36C180.051 84.504 180.003 84.624 179.907 84.72C179.811 84.804 179.691 84.846 179.547 84.846H177.747ZM186.349 83.586C186.589 83.586 186.805 83.634 186.997 83.73C187.189 83.826 187.285 83.97 187.285 84.162C187.285 84.33 187.237 84.468 187.141 84.576C187.045 84.672 186.931 84.72 186.799 84.72C186.739 84.72 186.619 84.69 186.439 84.63C186.271 84.57 186.109 84.54 185.953 84.54C185.509 84.54 185.065 84.714 184.621 85.062C184.189 85.398 183.829 85.836 183.541 86.376C183.265 86.916 183.127 87.462 183.127 88.014V92.46C183.127 92.616 183.073 92.748 182.965 92.856C182.869 92.952 182.743 93 182.587 93C182.431 93 182.299 92.952 182.191 92.856C182.095 92.748 182.047 92.616 182.047 92.46V84.396C182.047 84.24 182.095 84.114 182.191 84.018C182.299 83.91 182.431 83.856 182.587 83.856C182.743 83.856 182.869 83.91 182.965 84.018C183.073 84.114 183.127 84.24 183.127 84.396V85.98C183.403 85.296 183.817 84.732 184.369 84.288C184.933 83.832 185.593 83.598 186.349 83.586ZM196.232 83.802C196.388 83.802 196.514 83.856 196.61 83.964C196.718 84.072 196.772 84.204 196.772 84.36V92.46C196.772 92.616 196.718 92.748 196.61 92.856C196.514 92.952 196.388 93 196.232 93C196.076 93 195.944 92.952 195.836 92.856C195.74 92.748 195.692 92.616 195.692 92.46V91.254C195.392 91.794 194.942 92.25 194.342 92.622C193.742 92.994 193.088 93.18 192.38 93.18C191.576 93.18 190.85 92.97 190.202 92.55C189.566 92.13 189.062 91.554 188.69 90.822C188.33 90.09 188.15 89.268 188.15 88.356C188.15 87.444 188.336 86.628 188.708 85.908C189.08 85.176 189.584 84.606 190.22 84.198C190.868 83.79 191.582 83.586 192.362 83.586C193.082 83.586 193.742 83.76 194.342 84.108C194.942 84.456 195.392 84.912 195.692 85.476V84.36C195.692 84.204 195.74 84.072 195.836 83.964C195.944 83.856 196.076 83.802 196.232 83.802ZM192.488 92.172C193.112 92.172 193.67 92.01 194.162 91.686C194.666 91.35 195.056 90.894 195.332 90.318C195.62 89.73 195.764 89.076 195.764 88.356C195.764 87.66 195.62 87.024 195.332 86.448C195.056 85.872 194.666 85.422 194.162 85.098C193.67 84.762 193.112 84.594 192.488 84.594C191.864 84.594 191.3 84.756 190.796 85.08C190.304 85.404 189.914 85.854 189.626 86.43C189.35 86.994 189.212 87.636 189.212 88.356C189.212 89.076 189.35 89.73 189.626 90.318C189.902 90.894 190.286 91.35 190.778 91.686C191.282 92.01 191.852 92.172 192.488 92.172ZM201.39 84.846V90.876C201.39 91.332 201.474 91.644 201.642 91.812C201.81 91.968 202.032 92.046 202.308 92.046C202.38 92.046 202.47 92.034 202.578 92.01C202.686 91.974 202.77 91.956 202.83 91.956C202.938 91.956 203.028 92.004 203.1 92.1C203.184 92.184 203.226 92.286 203.226 92.406C203.226 92.574 203.13 92.718 202.938 92.838C202.746 92.946 202.518 93 202.254 93C201.93 93 201.642 92.97 201.39 92.91C201.138 92.85 200.892 92.67 200.652 92.37C200.424 92.07 200.31 91.59 200.31 90.93V84.846H198.996C198.852 84.846 198.726 84.798 198.618 84.702C198.522 84.606 198.474 84.486 198.474 84.342C198.474 84.198 198.522 84.078 198.618 83.982C198.726 83.886 198.852 83.838 198.996 83.838H200.31V81.84C200.31 81.684 200.358 81.558 200.454 81.462C200.562 81.354 200.694 81.3 200.85 81.3C201.006 81.3 201.132 81.354 201.228 81.462C201.336 81.558 201.39 81.684 201.39 81.84V83.838H203.19C203.322 83.838 203.436 83.892 203.532 84C203.64 84.108 203.694 84.228 203.694 84.36C203.694 84.504 203.646 84.624 203.55 84.72C203.454 84.804 203.334 84.846 203.19 84.846H201.39ZM206.734 92.46C206.734 92.616 206.68 92.748 206.572 92.856C206.476 92.952 206.35 93 206.194 93C206.038 93 205.906 92.952 205.798 92.856C205.702 92.748 205.654 92.616 205.654 92.46V84.18C205.654 84.024 205.702 83.898 205.798 83.802C205.906 83.694 206.038 83.64 206.194 83.64C206.35 83.64 206.476 83.694 206.572 83.802C206.68 83.898 206.734 84.024 206.734 84.18V92.46ZM206.194 82.434C205.954 82.434 205.768 82.38 205.636 82.272C205.504 82.152 205.438 81.984 205.438 81.768V81.588C205.438 81.372 205.504 81.21 205.636 81.102C205.78 80.982 205.972 80.922 206.212 80.922C206.692 80.922 206.932 81.144 206.932 81.588V81.768C206.932 81.984 206.866 82.152 206.734 82.272C206.614 82.38 206.434 82.434 206.194 82.434ZM218.035 88.392C218.035 89.292 217.837 90.108 217.441 90.84C217.045 91.572 216.499 92.148 215.803 92.568C215.107 92.976 214.333 93.18 213.481 93.18C212.629 93.18 211.855 92.976 211.159 92.568C210.463 92.148 209.917 91.572 209.521 90.84C209.125 90.108 208.927 89.292 208.927 88.392C208.927 87.492 209.125 86.676 209.521 85.944C209.917 85.212 210.463 84.636 211.159 84.216C211.855 83.796 212.629 83.586 213.481 83.586C214.333 83.586 215.107 83.796 215.803 84.216C216.499 84.636 217.045 85.212 217.441 85.944C217.837 86.676 218.035 87.492 218.035 88.392ZM216.955 88.392C216.955 87.672 216.805 87.024 216.505 86.448C216.205 85.872 215.785 85.422 215.245 85.098C214.717 84.762 214.129 84.594 213.481 84.594C212.833 84.594 212.245 84.762 211.717 85.098C211.189 85.422 210.769 85.872 210.457 86.448C210.157 87.024 210.007 87.672 210.007 88.392C210.007 89.1 210.157 89.742 210.457 90.318C210.769 90.894 211.189 91.35 211.717 91.686C212.245 92.01 212.833 92.172 213.481 92.172C214.129 92.172 214.717 92.01 215.245 91.686C215.785 91.362 216.205 90.912 216.505 90.336C216.805 89.76 216.955 89.112 216.955 88.392ZM224.582 83.586C225.698 83.586 226.514 83.916 227.03 84.576C227.558 85.224 227.822 86.088 227.822 87.168V92.46C227.822 92.616 227.768 92.748 227.66 92.856C227.552 92.952 227.426 93 227.282 93C227.126 93 226.994 92.952 226.886 92.856C226.79 92.748 226.742 92.616 226.742 92.46V87.222C226.742 86.442 226.544 85.812 226.148 85.332C225.764 84.84 225.164 84.594 224.348 84.594C223.832 84.594 223.34 84.714 222.872 84.954C222.416 85.194 222.044 85.518 221.756 85.926C221.468 86.322 221.324 86.754 221.324 87.222V92.46C221.324 92.616 221.27 92.748 221.162 92.856C221.066 92.952 220.94 93 220.784 93C220.628 93 220.496 92.952 220.388 92.856C220.292 92.748 220.244 92.616 220.244 92.46V84.396C220.244 84.24 220.292 84.114 220.388 84.018C220.496 83.91 220.628 83.856 220.784 83.856C220.94 83.856 221.066 83.91 221.162 84.018C221.27 84.114 221.324 84.24 221.324 84.396V85.386C221.648 84.87 222.11 84.444 222.71 84.108C223.322 83.76 223.946 83.586 224.582 83.586Z" fill="#B8DFD8"/>
</svg>
