<svg width="46" height="48" viewBox="0 0 46 48" fill="none" xmlns="http://www.w3.org/2000/svg">
<path d="M41.537 18.4724C41.0156 12.4488 37.4501 6.89388 32.4552 3.56635C29.7179 1.7429 26.5465 0.623691 23.2913 0.200319C14.3192 -0.966659 4.86998 2.97412 1.4852 11.787C-1.42452 19.3632 1.44442 26.8846 6.65484 32.6208C8.53515 34.6908 8.79586 38.5829 8.79586 41.2048V46.5218C8.79586 47.3381 9.45766 47.9999 10.274 47.9999H29.5132C30.292 47.9999 30.9356 47.3957 30.9882 46.6188C31.059 45.5729 31.1753 44.6531 31.1753 44.6531C31.5776 42.9279 33.0486 41.5446 36.1768 42.0468C39.4586 42.5733 41.5287 41.5953 41.7127 39.4101C41.7734 38.6893 41.8126 32.5321 41.8126 32.5321C41.9694 32.4425 42.9982 32.238 44.4978 31.8971C45.6638 31.632 46.0745 30.1843 45.2243 29.3433C41.8149 25.9706 41.3577 24.3984 41.2731 24.06C40.8509 22.3786 41.6899 20.2391 41.537 18.4724ZM35.1826 16.4594C34.7089 17.0595 34.1694 17.1768 33.884 17.1924C33.7901 17.1976 33.7246 17.287 33.7502 17.3775C33.8968 17.8938 34.0458 19.3157 31.5003 19.8693C29.113 20.3881 27.6694 22.245 26.7267 23.188C26.0026 23.9115 25.023 24.2464 24.0457 24.4663C23.0474 24.6909 22.0582 24.8875 21.2705 25.5969C20.4409 26.3441 19.2709 30.4585 19.0723 31.1737C19.0549 31.2365 18.9977 31.2797 18.9325 31.2797H17.7073C17.6385 31.2797 17.579 31.2316 17.5648 31.1642L16.9711 28.3561C16.9462 28.2382 11.1909 28.7117 10.7479 26.1428C10.7323 26.0527 10.6413 25.9967 10.5552 26.0278C10.0018 26.2275 8.22644 26.7188 7.26817 25.2339C6.58872 24.1811 6.76919 23.1982 6.86386 22.8589C6.88347 22.7886 6.84817 22.7155 6.78111 22.6866C6.29288 22.4767 4.52865 21.4875 4.76786 18.233C4.96088 15.6096 6.73531 14.4469 6.48723 14.0434C5.77162 12.8798 6.39366 10.9508 7.85978 10.5202C7.91884 10.5029 7.9608 10.4506 7.96637 10.3892L8.02825 9.7054C8.23186 7.29419 11.4001 5.76611 13.5541 6.76854C13.6372 6.80721 13.7359 6.76603 13.7635 6.67874C14.0332 5.824 14.5774 5.5887 14.7224 5.50713C15.3903 5.13137 16.2575 5.1778 16.9478 5.46117C17.0037 5.48408 17.0673 5.47011 17.1085 5.42604C17.3046 5.21592 18.1089 4.54902 19.4409 4.54902C20.8072 4.54902 21.5017 5.21294 21.7445 5.39882C21.7892 5.43294 21.8492 5.43906 21.8992 5.41357C22.2066 5.25639 23.3289 4.75388 24.4525 5.14094C25.3009 5.43364 25.7826 6.20588 25.9343 6.4869C25.9667 6.54698 26.0347 6.57764 26.1012 6.56196C26.5041 6.46651 27.8974 6.1989 29.068 6.72752C30.305 7.28674 30.691 8.09482 30.7894 8.36572C30.8094 8.42085 30.8611 8.4578 30.9197 8.46015C31.188 8.47082 31.9282 8.53576 32.3857 8.92023C33.1935 9.59944 33.1146 10.135 33.0216 10.3641C32.9933 10.434 33.0246 10.514 33.0923 10.5471C33.4612 10.7281 34.4956 11.3257 35.1372 12.5951C36.0205 14.3438 35.6671 15.8455 35.1826 16.4594Z" fill="#B8DFD8"/>
</svg>
