<svg width="32" height="32" viewBox="0 0 32 32" fill="none" xmlns="http://www.w3.org/2000/svg">
<path d="M25.2195 14.1878C26.3122 7.3421 27.9512 3.7656 30 2.0103C16.2374 1.68118 -6.19512 9.25107 5.07317 23.074C13.9512 29.9856 23.8537 22.7449 25.2195 14.1878Z" fill="#B8DFD8"/>
<path d="M30 2.0103L30.9759 3.1494C31.4477 2.74523 31.6215 2.09208 31.413 1.50689C31.2045 0.921706 30.6569 0.52558 30.0359 0.510728L30 2.0103ZM25.2195 14.1878L26.7008 14.4242L26.7008 14.4242L25.2195 14.1878ZM0.510318 29.8244C0.413319 30.6471 1.00164 31.3927 1.82437 31.4897C2.6471 31.5867 3.39268 30.9984 3.48968 30.1756L0.510318 29.8244ZM21.4526 8.61726C22.1932 8.24607 22.4927 7.34477 22.1215 6.60416C21.7503 5.86355 20.849 5.56408 20.1084 5.93527L21.4526 8.61726ZM29.0241 0.871196C26.5395 2.99988 24.8387 7.0569 23.7383 13.9513L26.7008 14.4242C27.7857 7.6273 29.363 4.53132 30.9759 3.1494L29.0241 0.871196ZM3.48968 30.1756C3.57144 29.4822 3.83179 28.7204 4.33079 27.6791C4.83807 26.6204 5.51679 25.419 6.39479 23.7834L3.75155 22.3645C2.91996 23.9137 2.1722 25.2415 1.62534 26.3827C1.0702 27.5413 0.64875 28.6502 0.510318 29.8244L3.48968 30.1756ZM6.39479 23.7834C9.02421 18.8851 13.4589 12.6237 21.4526 8.61726L20.1084 5.93527C11.3542 10.3229 6.54007 17.1698 3.75155 22.3645L6.39479 23.7834ZM23.7383 13.9513C23.1288 17.7698 20.5955 21.3166 17.2541 23.1099C13.9954 24.8588 9.94274 24.964 5.99462 21.8903L4.15172 24.2576C9.08164 28.0955 14.4192 28.0361 18.6727 25.7533C22.8435 23.5149 25.9444 19.1629 26.7008 14.4242L23.7383 13.9513ZM30.0359 0.510728C22.9486 0.341245 13.5987 2.18797 7.37391 5.9515C4.26274 7.83252 1.71318 10.3274 0.833227 13.5046C-0.0703591 16.7671 0.8959 20.3237 3.91053 24.0217L6.23581 22.1262C3.61629 18.9128 3.16101 16.3395 3.72439 14.3053C4.31141 12.1858 6.11733 10.2169 8.92608 8.51875C14.5411 5.12389 23.2888 3.35024 29.9641 3.50987L30.0359 0.510728Z" fill="#B8DFD8"/>
<path d="M5.33333 23.3334C8.11111 18.4445 12.3333 12.6667 20.6667 8.33337" stroke="#5E5E7B" stroke-width="3" stroke-linecap="round"/>
</svg>
