<svg width="126" height="50" viewBox="0 0 126 50" fill="none" xmlns="http://www.w3.org/2000/svg">
<path d="M1.22214 29V25.2502L11.8364 11.8842L11.5642 11.5213H1.6455V6.9248H18.973V10.6746L8.32854 24.0406L8.6007 24.4035H18.8521V29H1.22214ZM20.5398 17.6298V14.4848H21.689C22.4349 14.4848 22.9792 14.3336 23.3219 14.0312C23.6646 13.7086 23.8461 13.0434 23.8662 12.0354C23.6848 12.0757 23.4933 12.0958 23.2917 12.0958C22.5256 12.0958 21.8805 11.864 21.3563 11.4003C20.8523 10.9366 20.6003 10.2814 20.6003 9.43472C20.6003 8.64848 20.8422 7.97312 21.3261 7.40864C21.8301 6.84416 22.5659 6.56192 23.5336 6.56192C24.1586 6.56192 24.723 6.71312 25.227 7.01552C25.7512 7.29776 26.1645 7.7816 26.4669 8.46704C26.7894 9.13232 26.9507 10.0395 26.9507 11.1886V11.5818C26.9507 13.6784 26.477 15.2106 25.5294 16.1782C24.5819 17.1459 23.1909 17.6298 21.3563 17.6298H20.5398ZM29.8634 29V6.9248H35.3671V14.9989C36.234 12.8418 37.8367 11.7632 40.1753 11.7632H40.4172C42.2316 11.7632 43.6126 12.4184 44.5601 13.7288C45.5278 15.0392 46.0116 16.9645 46.0116 19.5046V29H40.5079V19.293C40.5079 18.5269 40.2761 17.9019 39.8124 17.4181C39.3487 16.9141 38.7338 16.6621 37.9678 16.6621C37.2017 16.6621 36.5767 16.9141 36.0929 17.4181C35.609 17.9019 35.3671 18.547 35.3671 19.3534V29H29.8634ZM54.5166 29.4234C52.7425 29.4234 51.291 28.9597 50.162 28.0323C49.0532 27.0848 48.4988 25.7744 48.4988 24.1011C48.4988 22.8512 48.8315 21.8432 49.4968 21.0771C50.162 20.2909 51.0793 19.7163 52.2486 19.3534C53.4179 18.9906 54.7585 18.8091 56.2705 18.8091H58.9014C58.8812 18.043 58.6897 17.4886 58.3268 17.1459C57.9841 16.783 57.4196 16.6016 56.6334 16.6016C56.2504 16.6016 55.6859 16.6117 54.94 16.6318C54.194 16.652 53.4078 16.6822 52.5812 16.7226C51.7547 16.7629 50.9987 16.8032 50.3132 16.8435V12.247C50.7971 12.2067 51.3716 12.1664 52.0369 12.1261C52.7022 12.0858 53.3876 12.0555 54.0932 12.0354C54.819 12.0152 55.4843 12.0051 56.0891 12.0051C58.6696 12.0051 60.6553 12.5696 62.0464 13.6986C63.4576 14.8275 64.1632 16.5512 64.1632 18.8696V29H59.8086V25.9155C59.4457 27.0445 58.8208 27.9114 57.9337 28.5162C57.0467 29.121 55.9076 29.4234 54.5166 29.4234ZM56.2705 25.7341C56.9761 25.7341 57.5708 25.5325 58.0547 25.1293C58.5587 24.7059 58.8409 23.9398 58.9014 22.831V21.6517H56.2705C55.5246 21.6517 54.95 21.8432 54.5468 22.2262C54.1436 22.5891 53.942 23.083 53.942 23.708C53.942 24.3128 54.1436 24.8067 54.5468 25.1898C54.95 25.5526 55.5246 25.7341 56.2705 25.7341ZM67.8406 29V12.3075H72.1952V16.6923C72.5177 15.0392 73.1528 13.8094 74.1003 13.003C75.0478 12.1765 76.2776 11.7632 77.7896 11.7632H78.0315C79.9265 11.7632 81.3881 12.3982 82.4163 13.6683C83.4646 14.9182 83.9888 16.8435 83.9888 19.4442V29H78.4851V19.293C78.4851 18.5269 78.2533 17.9019 77.7896 17.4181C77.3461 16.9141 76.7312 16.6621 75.9449 16.6621C75.1587 16.6621 74.5237 16.9141 74.0398 17.4181C73.5761 17.9019 73.3443 18.547 73.3443 19.3534V29H67.8406ZM94.5501 29.5443C92.9978 29.5443 91.6269 29.1814 90.4375 28.4557C89.2682 27.7299 88.3509 26.732 87.6856 25.4619C87.0405 24.1717 86.7179 22.7202 86.7179 21.1074V20.3816C86.7179 18.7486 87.0304 17.287 87.6554 15.9968C88.2803 14.7066 89.1573 13.6885 90.2863 12.9426C91.4354 12.1966 92.7962 11.8237 94.3687 11.8237C96.7274 11.8237 98.4712 12.7107 99.6002 14.4848V6.9248H105.104V29H100.749V25.4619C100.245 26.7522 99.4591 27.7602 98.3906 28.4859C97.3423 29.1915 96.0621 29.5443 94.5501 29.5443ZM96.0319 25.0083C97.0399 25.0083 97.9067 24.6757 98.6325 24.0104C99.3583 23.325 99.7211 22.3573 99.7211 21.1074V20.0792C99.7211 19.2728 99.5397 18.5974 99.1768 18.0531C98.8341 17.5088 98.3805 17.0955 97.816 16.8133C97.2717 16.5109 96.677 16.3597 96.0319 16.3597C94.9231 16.3597 94.0058 16.7629 93.28 17.5693C92.5744 18.3757 92.2216 19.4341 92.2216 20.7445C92.2216 22.0347 92.5744 23.073 93.28 23.8592C94.0058 24.6253 94.9231 25.0083 96.0319 25.0083ZM111.969 28.6371L107.1 12.3075H112.604L115.99 24.4035H116.535L119.226 12.3075H124.427L120.043 30.2096C119.72 31.5805 119.266 32.659 118.682 33.4453C118.117 34.2517 117.331 34.8162 116.323 35.1387C115.335 35.4814 114.045 35.6528 112.452 35.6528H109.217V31.0563H113.057C113.763 31.0563 114.297 30.9152 114.66 30.633C115.043 30.3709 115.315 29.877 115.476 29.1512L115.597 28.6371H111.969Z" fill="#E8F6EF"/>
<path d="M3.2886 47.2109C2.709 47.2109 2.22075 47.1196 1.82385 46.9369C1.42695 46.7479 1.12455 46.4896 0.91665 46.162C0.71505 45.8344 0.61425 45.4595 0.61425 45.0374H1.33245C1.33245 45.302 1.39545 45.5509 1.52145 45.784C1.65375 46.0108 1.86165 46.1966 2.14515 46.3415C2.43495 46.4801 2.8161 46.5494 3.2886 46.5494C3.9438 46.5494 4.4289 46.414 4.7439 46.1431C5.0652 45.8659 5.22585 45.5288 5.22585 45.1319C5.22585 44.798 5.09355 44.5208 4.82895 44.3003C4.57065 44.0735 4.18005 43.9381 3.65715 43.894L2.86335 43.8184C2.27115 43.768 1.79865 43.5853 1.44585 43.2703C1.09935 42.949 0.9261 42.5269 0.9261 42.004C0.9261 41.6071 1.0206 41.2574 1.2096 40.955C1.3986 40.6463 1.66635 40.4069 2.01285 40.2368C2.36565 40.0604 2.78775 39.9722 3.27915 39.9722C3.77685 39.9722 4.2021 40.0636 4.5549 40.2463C4.914 40.4227 5.18805 40.6684 5.37705 40.9834C5.56605 41.2984 5.66055 41.6638 5.66055 42.0796H4.94235C4.94235 41.8276 4.88565 41.5913 4.77225 41.3708C4.65885 41.1503 4.4793 40.9739 4.2336 40.8416C3.9879 40.703 3.66975 40.6337 3.27915 40.6337C2.90115 40.6337 2.59245 40.6967 2.35305 40.8227C2.11365 40.9487 1.9341 41.1157 1.8144 41.3236C1.701 41.5315 1.6443 41.7583 1.6443 42.004C1.6443 42.319 1.7514 42.5836 1.9656 42.7978C2.1861 43.0057 2.5074 43.1254 2.9295 43.1569L3.7233 43.2325C4.4226 43.2892 4.96755 43.4876 5.35815 43.8278C5.74875 44.1617 5.94405 44.5964 5.94405 45.1319C5.94405 45.5351 5.8338 45.8942 5.6133 46.2092C5.3991 46.5242 5.09355 46.7699 4.69665 46.9463C4.29975 47.1227 3.8304 47.2109 3.2886 47.2109ZM15.1477 47.107C14.8075 47.107 14.5083 47.0566 14.25 46.9558C13.998 46.855 13.8027 46.6849 13.6641 46.4455C13.5255 46.2061 13.4562 45.8785 13.4562 45.4627V42.5899H12.5584V42.0512H13.4562V40.4731H14.1366V42.0512H15.9415V42.5899H14.1366V45.5666C14.1366 45.8501 14.2153 46.0706 14.3728 46.2281C14.5303 46.3856 14.754 46.4644 15.0438 46.4644H15.9415V47.107H15.1477ZM24.4712 47.1826C23.9357 47.1826 23.5041 47.044 23.1765 46.7668C22.8489 46.4896 22.6851 46.0927 22.6851 45.5761C22.6851 45.0721 22.8552 44.6846 23.1954 44.4137C23.5419 44.1428 24.027 44.0074 24.6507 44.0074H26.0493V43.7711C26.0493 43.3994 25.9517 43.1159 25.7564 42.9206C25.5611 42.719 25.2587 42.6182 24.8492 42.6182C24.5657 42.6182 24.2822 42.6245 23.9987 42.6371C23.7152 42.6497 23.4726 42.6655 23.271 42.6844V42.0607C23.4726 42.0418 23.69 42.026 23.9231 42.0134C24.1562 42.0008 24.3798 41.9945 24.594 41.9945C25.3563 41.9945 25.9013 42.1394 26.2289 42.4292C26.5628 42.7127 26.7297 43.1821 26.7297 43.8373V47.0503H26.1627V46.0297C26.0493 46.414 25.8446 46.7038 25.5485 46.8991C25.2587 47.0881 24.8996 47.1826 24.4712 47.1826ZM24.6035 46.6156C24.8366 46.6156 25.0602 46.5746 25.2744 46.4927C25.4886 46.4045 25.6682 46.2596 25.8131 46.058C25.958 45.8501 26.0367 45.5666 26.0493 45.2075V44.546H24.6035C24.2066 44.546 23.901 44.6437 23.6868 44.839C23.4789 45.028 23.375 45.2768 23.375 45.5855C23.375 45.9005 23.4852 46.1525 23.7057 46.3415C23.9262 46.5242 24.2255 46.6156 24.6035 46.6156ZM33.8742 48.997V48.3638H34.5168C34.8444 48.3638 35.1027 48.3008 35.2917 48.1748C35.487 48.0488 35.6413 47.8094 35.7547 47.4566L35.9154 46.9274H35.4145L33.6001 42.0512H34.3278L35.8681 46.3321H36.1044L37.4368 42.0512H38.1267L36.369 47.6551C36.2178 48.1339 35.9815 48.4772 35.6602 48.6851C35.3452 48.893 34.9515 48.997 34.479 48.997H33.8742ZM53.3687 47.0503V42.6371H52.6411V42.089H53.3687V41.6638C53.3687 41.1346 53.5042 40.7471 53.7751 40.5014C54.0523 40.2494 54.4586 40.1234 54.9941 40.1234H55.6273V40.7282H54.8618C54.5972 40.7282 54.3956 40.7975 54.257 40.9361C54.1184 41.0747 54.0491 41.27 54.0491 41.522V42.089H55.7312V42.6371H54.0491V47.0503H53.3687ZM64.7917 47.2109C64.3633 47.2109 63.9853 47.1385 63.6577 46.9936C63.3301 46.8424 63.0561 46.6439 62.8356 46.3982C62.6151 46.1462 62.445 45.8659 62.3253 45.5572C62.2119 45.2485 62.1552 44.9335 62.1552 44.6122V44.4799C62.1552 44.1586 62.215 43.8436 62.3347 43.5349C62.4544 43.2262 62.6277 42.949 62.8545 42.7033C63.0813 42.4513 63.3553 42.2528 63.6766 42.1079C64.0042 41.9567 64.3759 41.8811 64.7917 41.8811C65.2075 41.8811 65.5792 41.9567 65.9068 42.1079C66.2344 42.2528 66.5116 42.4513 66.7384 42.7033C66.9652 42.949 67.1353 43.2262 67.2487 43.5349C67.3684 43.8436 67.4283 44.1586 67.4283 44.4799V44.6122C67.4283 44.9335 67.3716 45.2485 67.2582 45.5572C67.1448 45.8659 66.9747 46.1462 66.7479 46.3982C66.5274 46.6439 66.2533 46.8424 65.9257 46.9936C65.5981 47.1385 65.2201 47.2109 64.7917 47.2109ZM64.7917 46.5778C65.2075 46.5778 65.5572 46.4864 65.8407 46.3037C66.1305 46.121 66.351 45.8753 66.5022 45.5666C66.6534 45.2579 66.729 44.9177 66.729 44.546C66.729 44.168 66.6502 43.8278 66.4927 43.5254C66.3352 43.2167 66.1116 42.9742 65.8218 42.7978C65.5383 42.6151 65.1949 42.5237 64.7917 42.5237C64.3948 42.5237 64.0515 42.6151 63.7617 42.7978C63.4719 42.9742 63.2482 43.2167 63.0907 43.5254C62.9395 43.8278 62.8639 44.168 62.8639 44.546C62.8639 44.9177 62.9395 45.2579 63.0907 45.5666C63.2419 45.8753 63.4593 46.121 63.7428 46.3037C64.0326 46.4864 64.3822 46.5778 64.7917 46.5778ZM76.8084 47.2109C76.3863 47.2109 76.0178 47.1353 75.7028 46.9841C75.3941 46.8329 75.1358 46.6313 74.9279 46.3793C74.72 46.1273 74.5625 45.847 74.4554 45.5383C74.3546 45.2296 74.3042 44.9177 74.3042 44.6027V44.4704C74.3042 44.1491 74.3546 43.8373 74.4554 43.5349C74.5625 43.2262 74.72 42.949 74.9279 42.7033C75.1358 42.4513 75.3941 42.2528 75.7028 42.1079C76.0115 41.9567 76.3737 41.8811 76.7895 41.8811C77.2053 41.8811 77.5739 41.9567 77.8952 42.1079C78.2228 42.2591 78.4842 42.4733 78.6795 42.7505C78.8811 43.0277 79.004 43.3553 79.0481 43.7333H78.3677C78.311 43.3805 78.1472 43.0907 77.8763 42.8639C77.6117 42.6371 77.2494 42.5237 76.7895 42.5237C76.3926 42.5237 76.0619 42.6151 75.7973 42.7978C75.539 42.9742 75.3437 43.2167 75.2114 43.5254C75.0791 43.8278 75.0129 44.1649 75.0129 44.5366C75.0129 44.9083 75.0791 45.2485 75.2114 45.5572C75.3437 45.8659 75.5421 46.1147 75.8067 46.3037C76.0713 46.4864 76.4052 46.5778 76.8084 46.5778C77.262 46.5778 77.6337 46.4581 77.9235 46.2187C78.2196 45.973 78.3866 45.68 78.4244 45.3398H79.1048C79.0733 45.7178 78.9536 46.0486 78.7457 46.3321C78.5378 46.6093 78.2637 46.8266 77.9235 46.9841C77.5896 47.1353 77.2179 47.2109 76.8084 47.2109ZM87.9612 47.192C87.3564 47.192 86.8965 46.9999 86.5815 46.6156C86.2728 46.225 86.1184 45.6832 86.1184 44.9902V42.0418H86.8177V45.1319C86.8177 45.5666 86.9311 45.9131 87.1579 46.1714C87.391 46.4234 87.7123 46.5494 88.1218 46.5494C88.5502 46.5494 88.8904 46.414 89.1424 46.1431C89.4007 45.8722 89.5299 45.5099 89.5299 45.0563V42.0418H90.2386V47.0503H89.6716V45.9068C89.5645 46.3163 89.3692 46.6345 89.0857 46.8613C88.8085 47.0818 88.4431 47.192 87.9895 47.192H87.9612ZM99.4976 47.192C98.855 47.192 98.3604 47.0534 98.0139 46.7762C97.6674 46.4927 97.491 46.1147 97.4847 45.6422H98.1462C98.1525 45.8879 98.2565 46.1084 98.4581 46.3037C98.666 46.4927 99.0125 46.5872 99.4976 46.5872C99.9449 46.5872 100.279 46.4959 100.499 46.3132C100.726 46.1242 100.839 45.8974 100.839 45.6328C100.839 45.1603 100.477 44.8831 99.7527 44.8012L99.1857 44.7445C98.7258 44.6941 98.3573 44.5555 98.0801 44.3287C97.8029 44.1019 97.6643 43.7837 97.6643 43.3742C97.6643 42.9332 97.8312 42.5773 98.1651 42.3064C98.499 42.0355 98.9432 41.9 99.4976 41.9C100.033 41.9 100.468 42.026 100.802 42.278C101.142 42.53 101.315 42.8891 101.321 43.3553H100.66C100.654 43.1159 100.553 42.9143 100.358 42.7505C100.162 42.5867 99.8756 42.5048 99.4976 42.5048C99.107 42.5048 98.814 42.593 98.6187 42.7694C98.4297 42.9395 98.3352 43.1443 98.3352 43.3837C98.3352 43.5916 98.4077 43.7648 98.5526 43.9034C98.6975 44.0357 98.9243 44.1176 99.233 44.1491L99.8 44.2058C100.304 44.2625 100.713 44.4074 101.028 44.6405C101.35 44.8736 101.51 45.2075 101.51 45.6422C101.51 45.9383 101.425 46.2061 101.255 46.4455C101.091 46.6786 100.858 46.8613 100.556 46.9936C100.254 47.1259 99.9008 47.192 99.4976 47.192ZM110.837 47.2109C110.403 47.2109 110.028 47.1385 109.713 46.9936C109.404 46.8424 109.149 46.6439 108.947 46.3982C108.746 46.1462 108.594 45.8659 108.494 45.5572C108.399 45.2422 108.352 44.924 108.352 44.6027V44.4704C108.352 44.1491 108.402 43.8341 108.503 43.5254C108.604 43.2167 108.752 42.9395 108.947 42.6938C109.149 42.4481 109.401 42.2528 109.703 42.1079C110.012 41.9567 110.371 41.8811 110.781 41.8811C111.303 41.8811 111.738 41.9977 112.085 42.2308C112.437 42.4576 112.702 42.7568 112.878 43.1285C113.055 43.4939 113.143 43.8814 113.143 44.2909V44.6594H109.032C109.045 45.0185 109.117 45.3461 109.25 45.6422C109.382 45.932 109.58 46.162 109.845 46.3321C110.11 46.5022 110.44 46.5872 110.837 46.5872C111.272 46.5872 111.625 46.4896 111.896 46.2943C112.167 46.099 112.333 45.8627 112.396 45.5855H113.058C112.957 46.0832 112.708 46.4801 112.311 46.7762C111.921 47.066 111.429 47.2109 110.837 47.2109ZM110.781 42.5048C110.27 42.5048 109.87 42.656 109.58 42.9584C109.297 43.2608 109.124 43.6451 109.061 44.1113H112.453C112.409 43.6325 112.245 43.2451 111.962 42.949C111.678 42.6529 111.285 42.5048 110.781 42.5048ZM122.386 47.2109C121.9 47.2109 121.472 47.0944 121.1 46.8613C120.735 46.6219 120.448 46.3069 120.24 45.9163C120.039 45.5194 119.938 45.0847 119.938 44.6122V44.4799C119.938 44.0263 120.036 43.6042 120.231 43.2136C120.433 42.8167 120.716 42.4954 121.081 42.2497C121.447 42.004 121.875 41.8811 122.367 41.8811C122.782 41.8811 123.154 41.9756 123.482 42.1646C123.809 42.3473 124.068 42.6119 124.257 42.9584V40.1518H124.965V47.0503H124.398V45.9257C124.222 46.3541 123.954 46.6754 123.595 46.8896C123.236 47.1038 122.833 47.2109 122.386 47.2109ZM122.48 46.5872C122.82 46.5872 123.126 46.5116 123.397 46.3604C123.674 46.2029 123.891 45.9887 124.049 45.7178C124.206 45.4406 124.285 45.1162 124.285 44.7445V44.2909C124.285 43.9381 124.203 43.6294 124.039 43.3648C123.882 43.0939 123.664 42.8828 123.387 42.7316C123.116 42.5804 122.811 42.5048 122.471 42.5048C122.093 42.5048 121.768 42.5962 121.497 42.7789C121.226 42.9553 121.015 43.1978 120.864 43.5065C120.719 43.8152 120.647 44.1617 120.647 44.546C120.647 44.9429 120.722 45.2957 120.874 45.6044C121.025 45.9131 121.236 46.1557 121.507 46.3321C121.784 46.5022 122.108 46.5872 122.48 46.5872Z" fill="#E8F6EF"/>
</svg>
