<svg width="650" height="450" viewBox="0 0 650 450" fill="none" xmlns="http://www.w3.org/2000/svg">
<g clip-path="url(#clip0)">
<path d="M574.251 389.845C574.251 389.845 656.928 351.839 627.883 325.484C598.839 299.129 574.251 389.845 574.251 389.845Z" fill="#E1DDFB"/>
<path d="M575.69 398.714C575.69 398.714 613.691 274.033 557.734 279.996C501.776 285.959 575.69 398.714 575.69 398.714Z" fill="#E1DDFB"/>
<path d="M603.397 387.656L601.802 408.512L601.777 408.873C601.778 412.13 601.613 415.384 601.283 418.625C599.118 439.898 589.815 449.594 578.941 449.594C568.067 449.594 559.169 439.898 557.004 418.625C556.674 415.384 556.509 412.13 556.51 408.873L556.498 408.582L556.491 408.512L554.89 387.656H603.397Z" fill="#7B7BA3"/>
<path d="M556.492 408.512L556.498 408.582L556.511 408.872C556.509 412.13 556.674 415.385 557.005 418.625H601.283C601.614 415.385 601.778 412.13 601.777 408.872L601.802 408.512H556.492Z" fill="white"/>
<path d="M35.0172 402.601C35.0172 402.601 99.0266 373.176 76.5402 352.771C54.0537 332.366 35.0172 402.601 35.0172 402.601Z" fill="#E1DDFB"/>
<path d="M36.1321 409.467C36.1321 409.467 65.5534 312.937 22.2293 317.553C-21.0948 322.17 36.1321 409.467 36.1321 409.467Z" fill="#E1DDFB"/>
<path d="M57.5825 400.906L56.3477 417.053L56.3281 417.332C56.3292 419.853 56.2017 422.373 55.9459 424.882C54.27 441.352 47.0668 448.858 38.6484 448.858C30.23 448.858 23.3404 441.352 21.6645 424.882C21.4087 422.373 21.2812 419.853 21.2823 417.332L21.2725 417.107L21.2677 417.053L20.0279 400.906H57.5825Z" fill="#7B7BA3"/>
<path d="M21.2674 417.053L21.2722 417.107L21.2821 417.332C21.2809 419.853 21.4085 422.373 21.6643 424.882H55.9454C56.2012 422.373 56.3287 419.853 56.3276 417.332L56.3472 417.053H21.2674Z" fill="white"/>
<path d="M434.512 134.223V105.857H438.929V134.223C440.196 134.735 441.245 135.67 441.897 136.87C442.549 138.07 442.762 139.458 442.501 140.798C442.24 142.138 441.521 143.345 440.466 144.213C439.411 145.081 438.087 145.556 436.72 145.556C435.354 145.556 434.029 145.081 432.975 144.213C431.92 143.345 431.201 142.138 430.939 140.798C430.678 139.458 430.892 138.07 431.544 136.87C432.196 135.67 433.245 134.735 434.512 134.223Z" fill="#E6E6E6"/>
<path d="M424.205 420.486H454.388V54.3986H466.167V420.486H496.35C499.927 420.486 503.469 421.19 506.773 422.557C510.078 423.924 513.081 425.927 515.61 428.453C518.139 430.979 520.146 433.977 521.515 437.277C522.883 440.577 523.588 444.114 523.588 447.686V447.686H396.967V447.686C396.967 444.114 397.672 440.577 399.04 437.277C400.409 433.977 402.416 430.979 404.945 428.453C407.474 425.927 410.477 423.924 413.782 422.557C417.086 421.19 420.628 420.486 424.205 420.486Z" fill="#E6E6E6"/>
<path d="M523.527 108.797H397.028L404.764 12.2468C405.047 8.91757 406.567 5.8145 409.025 3.54807C411.484 1.28164 414.703 0.0159474 418.049 0H502.507C505.852 0.0159466 509.071 1.28164 511.53 3.54806C513.988 5.81448 515.509 8.91754 515.791 12.2468L523.527 108.797Z" fill="#B8DFD8"/>
<path d="M347.395 278.256C348.585 278.059 349.802 278.099 350.976 278.375C352.15 278.651 353.258 279.158 354.234 279.865C355.211 280.572 356.037 281.466 356.665 282.494C357.293 283.523 357.709 284.666 357.891 285.857L361.453 309.196L349.335 312.405L340.456 290.66C339.94 289.396 339.716 288.033 339.799 286.671C339.883 285.309 340.272 283.983 340.938 282.792C341.605 281.6 342.531 280.574 343.649 279.789C344.766 279.004 346.047 278.48 347.395 278.256Z" fill="#A0616A"/>
<path d="M347.621 309.152C340.896 335.838 343.79 360.247 368.832 379.411C398.867 371.144 418.843 351.196 431.032 322.206C431.789 320.404 432.173 318.467 432.161 316.512C432.148 314.557 431.739 312.625 430.958 310.832C430.177 309.04 429.04 307.424 427.616 306.082C426.193 304.74 424.511 303.701 422.674 303.026C419.913 302.012 416.909 301.862 414.061 302.595C411.213 303.328 408.656 304.909 406.73 307.129L377.26 341.094L363.434 306.846L347.621 309.152Z" fill="#B8DFD8"/>
<path d="M193.732 449.161C221.157 447.707 238.193 438.303 242.319 419.021L237.902 410.935L187.332 433.94C186.055 434.521 184.98 435.468 184.243 436.66C183.507 437.852 183.142 439.236 183.196 440.636C183.249 442.036 183.718 443.389 184.543 444.522C185.368 445.655 186.512 446.518 187.829 447L193.732 449.161Z" fill="#E6E6E6"/>
<path d="M214.923 449.354C229.172 448.923 242.875 449.057 255.86 449.934C258.138 450.09 260.385 449.342 262.114 447.854C263.843 446.366 264.915 444.256 265.097 441.984L265.876 432.253L276.919 414.611L267.349 405.054C251.266 421.05 233.627 434.485 212.678 442.471C212.005 442.932 211.5 443.598 211.237 444.369C210.974 445.141 210.969 445.976 211.221 446.751C211.474 447.526 211.971 448.198 212.638 448.667C213.306 449.137 214.107 449.378 214.923 449.354Z" fill="#E6E6E6"/>
<path d="M292.379 380.06C310.574 412.571 328.469 434.488 352.008 446.221C380.968 455.765 402.134 443.12 418.631 417.183L370.78 385.573L363.787 392.557L300.404 344.393C298.856 342.93 296.792 342.135 294.66 342.182C292.529 342.23 290.502 343.115 289.02 344.646L234.958 410.935L241.583 421.962L292.379 380.06Z" fill="#2F2E41"/>
<path d="M276.183 418.287L301.213 380.06L295.323 369.034L262.196 403.584L276.183 418.287Z" fill="#2F2E41"/>
<path d="M420.472 296.257C406.648 296.257 395.442 285.067 395.442 271.263C395.442 257.459 406.648 246.269 420.472 246.269C434.295 246.269 445.501 257.459 445.501 271.263C445.501 285.067 434.295 296.257 420.472 296.257Z" fill="#A0616A"/>
<path d="M413.846 317.576L441.82 308.019C437.681 301.451 435.866 293.685 436.667 285.966H413.846C415.144 297.182 415.338 307.82 413.846 317.576Z" fill="#A0616A"/>
<path d="M354.217 384.471C358.411 386.19 358.717 391.765 362.683 393.66C381.852 402.818 402.133 410.25 416.055 423.432C448.588 401.371 478.743 332.853 439.612 302.873C426.255 310.678 414.324 316.263 414.582 302.873L354.217 384.471Z" fill="#B8DFD8"/>
<path opacity="0.2" d="M371.148 355.066L384.768 350.288L411.638 371.239L423.683 327.938C424.518 324.935 425.872 326.457 427.816 328.543C429.842 326.671 432.362 325.415 435.079 324.926C437.796 324.436 440.596 324.733 443.15 325.78C445.703 326.828 447.904 328.583 449.492 330.838C451.08 333.093 451.988 335.755 452.111 338.509C453.544 369.918 444.059 396.49 420.472 416.816C389.621 410.22 376.528 389.406 371.148 362.417L372.607 361.447C372.069 359.361 371.583 357.234 371.148 355.066Z" fill="black"/>
<path d="M417.104 238.384C408.847 240.268 399.45 242.937 398.923 245.417C390.43 247.554 384.02 252.673 382.711 260.477C382.602 261.152 382.642 261.842 382.828 262.499C383.015 263.157 383.344 263.765 383.792 264.282C384.239 264.799 384.795 265.211 385.42 265.49C386.044 265.769 386.722 265.908 387.407 265.897C392.025 265.838 398.959 265.396 403.537 263.487C416.838 272.044 419.07 294.302 413.262 309.452L422.402 308.615L431.858 280.973L434.273 307.529L455.131 304.775L452.444 270.912C451.619 262.931 448.899 255.261 444.51 248.54C444.054 247.865 443.555 247.22 443.017 246.609C439.844 243.029 435.759 240.374 431.197 238.926C426.634 237.478 421.764 237.291 417.104 238.384Z" fill="#2F2E41"/>
<path d="M370.047 322.295L347.139 349.188L312.778 308.694L335.995 280.564L370.047 322.295Z" fill="#3F3D56"/>
<path d="M318.66 309.621L345.901 287.365C344.354 283.655 336.924 284.892 336.924 284.892L315.6 306.479C314.857 307.231 314.22 308.08 313.707 309.003L318.66 309.621Z" fill="#F2F2F2"/>
<path d="M317.421 308.076L348.377 283.964L382.739 335.896L350.39 357.689C347.294 358.926 344.198 356.762 344.198 356.762L312.623 308.539L317.421 308.076Z" fill="#3F3D56"/>
<path d="M344.517 291.49L344.81 291.897L324.996 306.114L324.703 305.707L344.517 291.49Z" fill="#B8DFD8"/>
<path d="M324.441 311.028L350.444 350.287L350.026 350.563L324.022 311.305L324.441 311.028Z" fill="#B8DFD8"/>
<path d="M374.23 336L374.527 336.404L353.482 351.867L353.185 351.463L374.23 336Z" fill="#B8DFD8"/>
<path d="M348.274 292.167L375.206 330.808L374.794 331.094L347.862 292.453L348.274 292.167Z" fill="#B8DFD8"/>
<path d="M339.955 284.585L340.164 284.813L315.669 307.262L315.46 307.035L339.955 284.585Z" fill="#B3B3B3"/>
<path d="M341.995 284.778L342.2 285.01L316.6 307.578L316.395 307.347L341.995 284.778Z" fill="#B3B3B3"/>
<path d="M343.597 285.227L343.795 285.465L317.219 307.586L317.021 307.349L343.597 285.227Z" fill="#B3B3B3"/>
<path d="M357.681 330.191C358.671 329.503 359.789 329.018 360.968 328.765C362.147 328.512 363.365 328.495 364.551 328.716C365.737 328.937 366.867 329.391 367.876 330.052C368.884 330.712 369.752 331.566 370.427 332.564L383.663 352.126L374.093 360.213L356.737 344.367C355.728 343.446 354.94 342.31 354.431 341.044C353.922 339.778 353.704 338.413 353.795 337.052C353.886 335.69 354.282 334.367 354.955 333.179C355.628 331.991 356.559 330.97 357.681 330.191Z" fill="#A0616A"/>
<path d="M371.148 358.007C376.528 384.996 389.621 405.809 420.472 412.406C444.059 392.08 453.544 365.507 452.111 334.098C452.022 332.145 451.538 330.231 450.687 328.47C449.836 326.709 448.637 325.139 447.162 323.854C445.687 322.568 443.966 321.595 442.104 320.992C440.242 320.389 438.276 320.169 436.327 320.346C433.398 320.612 430.619 321.762 428.36 323.644C426.102 325.525 424.47 328.049 423.683 330.878L411.638 374.179L384.446 349.155L371.148 358.007Z" fill="#B8DFD8"/>
<path d="M0.290894 450.002H650V448.396H0.00012207L0.290894 450.002Z" fill="#3F3D56"/>
<path d="M310.414 67.2682C310.805 67.2686 311.179 67.4236 311.455 67.6992C311.731 67.9749 311.886 68.3486 311.887 68.7384V183.416C311.886 183.806 311.731 184.18 311.455 184.456C311.179 184.731 310.805 184.886 310.414 184.887H214.713C214.322 184.886 213.948 184.731 213.672 184.455C213.396 184.18 213.241 183.806 213.24 183.416V68.7384C213.241 68.3486 213.396 67.9749 213.672 67.6993C213.948 67.4237 214.322 67.2686 214.713 67.2682H310.414Z" fill="#9999B8"/>
<path d="M300.477 173.493H224.651V78.6625H300.477V173.493Z" fill="white"/>
<path d="M151.084 97.408C151.317 97.4082 151.54 97.5008 151.705 97.6653C151.87 97.8299 151.963 98.053 151.963 98.2857V155.339C151.963 155.572 151.87 155.795 151.705 155.96C151.54 156.124 151.317 156.217 151.084 156.217H82.5214C82.2884 156.217 82.0649 156.124 81.9002 155.96C81.7354 155.795 81.6427 155.572 81.6424 155.339V98.2858C81.6427 98.0531 81.7354 97.8299 81.9002 97.6654C82.0649 97.5008 82.2884 97.4083 82.5214 97.408L151.084 97.408Z" fill="#9999B8"/>
<path d="M145.15 104.211V149.415H88.4542V104.211H145.15Z" fill="white"/>
<path d="M249.175 75.3545H275.952C276.599 75.3571 277.236 75.1888 277.797 74.8668C278.358 74.5449 278.824 74.0805 279.147 73.5209C279.471 72.9613 279.64 72.3263 279.639 71.6801C279.638 71.0339 279.466 70.3995 279.14 69.8412L265.751 46.685C265.741 46.666 265.729 46.647 265.718 46.6279C265.425 46.1354 265.02 45.719 264.536 45.4126C264.051 45.1061 263.501 44.9185 262.93 44.8648L262.911 44.863C262.797 44.8526 262.681 44.8472 262.564 44.8472C261.917 44.8434 261.281 45.0116 260.72 45.3346C260.16 45.6576 259.696 46.1237 259.376 46.685L245.988 69.8412C245.665 70.3999 245.494 71.0338 245.495 71.6789C245.495 72.3241 245.665 72.9579 245.988 73.5166C246.311 74.0754 246.775 74.5394 247.335 74.862C247.894 75.1846 248.529 75.3545 249.175 75.3545ZM276.691 71.6754C276.69 71.8057 276.655 71.9336 276.59 72.0465C276.526 72.1592 276.434 72.2527 276.321 72.3173C276.209 72.382 276.082 72.4154 275.952 72.4141H249.175C249.046 72.4155 248.918 72.3821 248.806 72.3174C248.694 72.2527 248.601 72.1592 248.538 72.0465C248.472 71.9337 248.437 71.806 248.436 71.6757C248.437 71.5476 248.472 71.422 248.538 71.3118L261.926 48.1553C261.991 48.0435 262.084 47.9507 262.196 47.8862C262.308 47.8217 262.435 47.7877 262.564 47.7877C262.693 47.7877 262.82 47.8217 262.932 47.8862C263.044 47.9507 263.137 48.0435 263.201 48.1553L276.59 71.3114C276.655 71.4216 276.69 71.5472 276.691 71.6754Z" fill="#E6E6E6"/>
<path d="M262.564 51.8309C261.344 51.8309 260.355 50.8435 260.355 49.6255C260.355 48.4075 261.344 47.4202 262.564 47.4202C263.783 47.4202 264.772 48.4075 264.772 49.6255C264.772 50.8435 263.783 51.8309 262.564 51.8309Z" fill="#E6E6E6"/>
<path d="M109.544 99.2458H124.062C124.412 99.2472 124.757 99.156 125.062 98.9814C125.366 98.8069 125.618 98.5551 125.794 98.2517C125.969 97.9483 126.061 97.604 126.061 97.2537C126.06 96.9033 125.966 96.5594 125.79 96.2567L118.531 83.7021L118.513 83.6712C118.354 83.4041 118.135 83.1784 117.872 83.0122C117.609 82.8461 117.311 82.7443 117.002 82.7153L116.991 82.7143C116.929 82.7086 116.866 82.7057 116.803 82.7057C116.452 82.7036 116.107 82.7948 115.803 82.97C115.5 83.1451 115.248 83.3978 115.075 83.7021L107.816 96.2567C107.641 96.5596 107.548 96.9033 107.548 97.253C107.548 97.6028 107.641 97.9465 107.816 98.2494C107.991 98.5523 108.243 98.8039 108.546 98.9788C108.85 99.1537 109.194 99.2458 109.544 99.2458ZM124.462 97.2511C124.462 97.3218 124.443 97.3911 124.407 97.4523C124.373 97.5134 124.323 97.5641 124.262 97.5992C124.201 97.6342 124.132 97.6523 124.062 97.6516H109.544C109.474 97.6524 109.405 97.6343 109.344 97.5992C109.283 97.5641 109.233 97.5134 109.198 97.4523C109.163 97.3912 109.144 97.3219 109.143 97.2513C109.144 97.1818 109.163 97.1137 109.198 97.054L116.457 84.4992C116.492 84.4386 116.542 84.3883 116.603 84.3533C116.664 84.3184 116.733 84.2999 116.803 84.2999C116.873 84.2999 116.942 84.3184 117.002 84.3533C117.063 84.3883 117.113 84.4386 117.149 84.4992L124.407 97.0538C124.443 97.1135 124.462 97.1816 124.462 97.2511Z" fill="#E6E6E6"/>
<path d="M116.803 86.4919C116.142 86.4919 115.606 85.9566 115.606 85.2963C115.606 84.6359 116.142 84.1006 116.803 84.1006C117.464 84.1006 118 84.6359 118 85.2963C118 85.9566 117.464 86.4919 116.803 86.4919Z" fill="#E6E6E6"/>
<path d="M299.609 137.384C298.551 134.959 297.009 132.774 295.077 130.963C293.146 129.152 290.865 127.754 288.374 126.852C285.783 125.854 283.007 125.426 280.236 125.598C277.465 125.77 274.763 126.538 272.317 127.85C266.572 130.894 261.979 135.681 256.145 138.595C250.472 141.401 244.229 142.87 237.898 142.887C230.73 142.943 223.674 141.114 217.438 137.584C217.195 137.431 217.022 137.19 216.954 136.912C216.886 136.634 216.929 136.341 217.073 136.094C217.218 135.847 217.453 135.666 217.729 135.588C218.005 135.511 218.3 135.544 218.552 135.68C224.204 138.842 230.552 140.559 237.029 140.678C243.507 140.797 249.913 139.313 255.677 136.36C261.531 133.295 266.168 128.347 272.131 125.475C274.662 124.248 277.412 123.536 280.222 123.378C283.031 123.221 285.844 123.622 288.496 124.558C291.446 125.546 294.151 127.148 296.434 129.258C298.717 131.368 300.525 133.938 301.739 136.798C302.275 138.112 300.139 138.683 299.609 137.384V137.384Z" fill="#E6E6E6"/>
<path d="M301.354 157.999C289.098 155.267 276.385 155.311 264.148 158.128C253.277 160.645 242.056 165.174 230.848 161.796C225.841 160.287 221.252 157.269 218.68 152.624C217.991 151.381 219.898 150.268 220.587 151.511C225.43 160.257 236.777 161.732 245.739 160.297C251.727 159.339 257.498 157.416 263.392 156.04C276.064 153.074 289.244 153.016 301.941 155.872C303.328 156.182 302.741 158.308 301.354 157.999Z" fill="#E6E6E6"/>
<path d="M302.15 108.703C290.398 106.707 278.362 107.135 266.783 109.96C255.965 112.606 245.39 118.653 233.952 117.609C228.656 117.125 223.413 115.18 219.815 111.135C218.874 110.077 220.431 108.512 221.377 109.575C224.48 113.065 228.951 114.874 233.538 115.363C238.824 115.926 244.019 114.832 249.051 113.278C254.621 111.558 260.032 109.379 265.695 107.957C277.811 104.919 290.429 104.449 302.737 106.577C304.135 106.815 303.542 108.941 302.15 108.703Z" fill="#E6E6E6"/>
<path d="M135.278 103.466C130.2 108.658 126.698 115.179 125.176 122.275C124.005 127.92 124.137 133.757 125.562 139.344C126.986 144.93 129.666 150.119 133.397 154.518C134.312 155.594 132.757 157.161 131.835 156.078C126.752 150.097 123.506 142.778 122.487 134.999C121.745 128.995 122.369 122.901 124.313 117.171C126.257 111.441 129.472 106.223 133.716 101.906C134.713 100.891 136.274 102.451 135.278 103.466Z" fill="#E6E6E6"/>
<path d="M102.142 98.7598C108.911 103.717 112.7 111.718 113.233 119.994C113.788 128.604 110.499 136.92 105.203 143.606C102.113 147.455 98.4222 150.782 94.272 153.459C93.0792 154.239 91.9714 152.33 93.1574 151.555C99.9189 147.137 105.705 140.862 108.777 133.331C110.275 129.753 111.052 125.916 111.062 122.039C111.073 118.162 110.319 114.32 108.841 110.735C107.187 106.74 104.488 103.262 101.028 100.664C99.8932 99.8333 100.994 97.9187 102.142 98.7598Z" fill="#E6E6E6"/>
<path d="M257.411 120.932C251.719 120.932 247.105 116.324 247.105 110.64C247.105 104.956 251.719 100.349 257.411 100.349C263.103 100.349 267.717 104.956 267.717 110.64C267.717 116.324 263.103 120.932 257.411 120.932Z" fill="#FFE195"/>
</g>
<defs>
<clipPath id="clip0">
<rect width="650" height="450" fill="white" transform="matrix(-1 0 0 1 650 0)"/>
</clipPath>
</defs>
</svg>
